<svg id="Capa_1" enable-background="new 0 0 510 510" height="512" viewBox="0 0 510 510" width="512" xmlns="http://www.w3.org/2000/svg"><g id="XMLID_144_"><path id="XMLID_1041_" d="m285.583 172.973c-12.931 0-24.654 5.272-33.135 13.777-8.481-8.506-20.204-13.777-33.135-13.777h-53.398v41.238c0 25.814 21.001 46.815 46.815 46.815h79.437c25.813 0 46.815-21.001 46.815-46.815v-41.238z" fill="#00dd7b"/><path id="XMLID_1087_" d="m285.583 172.973c-12.932 0-24.654 5.272-33.135 13.778v74.276h39.719c25.813 0 46.815-21.001 46.815-46.815v-41.238h-53.399z" fill="#22bf66"/><path id="XMLID_1060_" d="m237.448 122.333h22.5v215.063h-22.5z" fill="#91eb90"/><path id="XMLID_1049_" d="m252.448 122.333h15v215.063h-15z" fill="#00dd7b"/><path id="XMLID_1082_" d="m281.781 0c-10.484 0-20.657 3.047-29.333 8.611-8.676-5.564-18.848-8.611-29.333-8.611h-44.771v85.391c0 28.642 23.301 51.943 51.942 51.943h44.322c28.642 0 51.942-23.301 51.942-51.943v-85.391z" fill="#ff5b5b"/><path id="XMLID_1108_" d="m281.781 0c-10.484 0-20.657 3.047-29.333 8.611v128.723h22.161c28.642 0 51.942-23.301 51.942-51.943v-85.391z" fill="#ff193d"/><path id="XMLID_145_" d="m388.684 388.292c-.03 0-.06 0-.09 0-18.105 0-35.302-8.052-46.014-21.549-9.865-12.43-24.013-20.216-39.537-21.953-12.229-15.339-30.604-24.282-50.595-24.282s-38.365 8.943-50.595 24.282c-15.515 1.736-29.655 9.513-39.52 21.93-10.727 13.502-27.923 21.555-46.019 21.555-.036 0-.073 0-.109 0l-116.205-.185v121.91h510v-121.905z" fill="#e29a74"/><path id="XMLID_1165_" d="m388.684 388.292c-.03 0-.06 0-.09 0-18.105 0-35.302-8.052-46.014-21.549-9.865-12.43-24.013-20.216-39.537-21.953-12.229-15.339-30.604-24.282-50.595-24.282v189.492h257.552v-121.905z" fill="#c5715a"/></g></svg>