<svg id="Capa_1" enable-background="new 0 0 511 511" height="512" viewBox="0 0 511 511" width="512" xmlns="http://www.w3.org/2000/svg"><g id="XMLID_97_"><path id="XMLID_131_" d="m312.904 16.079-14.191 26.432-12.062 335.831 26.321 14.394 159.216-291.143z" fill="#a7d2d7"/><path id="XMLID_391_" d="m362.021 302.901-74.304-39.278 14.19-26.432 74.489 39.425z" fill="#7ba0b0"/><path id="XMLID_102_" d="m370.101 144.18c7.846 0 15.363-6.899 15-15-.364-8.127-6.591-15-15-15-7.846 0-15.363 6.899-15 15 .364 8.127 6.591 15 15 15z" fill="#002c3c"/><path id="XMLID_115_" d="m339.882 210.582c7.846 0 15.363-6.899 15-15-.364-8.127-6.591-15-15-15-7.846 0-15.363 6.899-15 15 .364 8.127 6.59 15 15 15z" fill="#002c3c"/><path id="XMLID_428_" d="m38.812 0h266v511h-266z" fill="#fef2f3"/><path id="XMLID_901_" d="m176.812 0h138v511h-138z" fill="#e4ebef"/><path id="XMLID_142_" d="m38.812 240.5h276v30h-276z" fill="#e4ebef"/><path id="XMLID_804_" d="m232.812 81c7.846 0 15.363-6.899 15-15-.364-8.127-6.591-15-15-15-7.846 0-15.363 6.899-15 15 .364 8.127 6.591 15 15 15z" fill="#00465f"/><path id="XMLID_801_" d="m232.812 138c7.846 0 15.363-6.899 15-15-.364-8.127-6.591-15-15-15-7.846 0-15.363 6.899-15 15 .364 8.127 6.591 15 15 15z" fill="#00465f"/><path id="XMLID_797_" d="m232.812 195c7.846 0 15.363-6.899 15-15-.364-8.127-6.591-15-15-15-7.846 0-15.363 6.899-15 15 .364 8.127 6.591 15 15 15z" fill="#00465f"/><g fill="#00607f"><path id="XMLID_794_" d="m120.812 81c7.846 0 15.363-6.899 15-15-.364-8.127-6.591-15-15-15-7.846 0-15.363 6.899-15 15 .364 8.127 6.591 15 15 15z"/><path id="XMLID_791_" d="m120.812 138c7.846 0 15.363-6.899 15-15-.364-8.127-6.591-15-15-15-7.846 0-15.363 6.899-15 15 .364 8.127 6.591 15 15 15z"/><path id="XMLID_179_" d="m120.812 195c7.846 0 15.363-6.899 15-15-.364-8.127-6.591-15-15-15-7.846 0-15.363 6.899-15 15 .364 8.127 6.591 15 15 15z"/><path id="XMLID_403_" d="m176.812 402c7.846 0 15.363-6.899 15-15-.364-8.127-6.591-15-15-15-7.846 0-15.363 6.899-15 15 .364 8.127 6.591 15 15 15z"/></g><path id="XMLID_840_" d="m176.812 372v30c7.846 0 15.363-6.899 15-15-.364-8.127-6.59-15-15-15z" fill="#00465f"/><path id="XMLID_891_" d="m176.812 240.5h138v30h-138z" fill="#c7e2e5"/></g></svg>