<svg id="Capa_1" enable-background="new 0 0 512 512" height="512" viewBox="0 0 512 512" width="512" xmlns="http://www.w3.org/2000/svg"><g id="XMLID_572_"><path id="XMLID_1065_" d="m126.376 394.245h30v77.921h-30z" fill="#e29a74"/><path id="XMLID_1031_" d="m512 472.167h-30v-77.922l30 6.908z" fill="#c5715a"/><path id="XMLID_101_" d="m512 401.153h-385.681l-126.319-126.319 46.122-46.122 107.215 107.215h358.663z" fill="#00cef5"/><g fill="#ffde46"><ellipse id="XMLID_1009_" cx="316.914" cy="150.3" rx="46.229" ry="46.228" transform="matrix(.383 -.924 .924 .383 56.777 385.574)"/><path id="XMLID_1000_" d="m301.914 39.833h30v38.493h-30z"/><path id="XMLID_998_" d="m230.595 74.179h30v38.493h-30z" transform="matrix(.624 -.782 .782 .624 19.427 227.19)"/><path id="XMLID_993_" d="m208.734 155.599h38.493v30h-38.493z" transform="matrix(.975 -.223 .223 .975 -32.246 55.009)"/><path id="XMLID_992_" d="m258.088 217.487h38.493v30h-38.493z" transform="matrix(.434 -.901 .901 .434 -52.46 381.485)"/></g><path id="XMLID_991_" d="m341.493 213.241h30v38.493h-30z" fill="#ffb64c" transform="matrix(.901 -.434 .434 .901 -65.568 177.696)"/><path id="XMLID_989_" d="m390.847 151.352h30v38.492h-30z" fill="#ffb64c" transform="matrix(.223 -.975 .975 .223 149.216 528.309)"/><path id="XMLID_988_" d="m368.986 78.425h38.494v30h-38.494z" fill="#ffb64c" transform="matrix(.782 -.624 .624 .782 26.452 262.445)"/><path id="XMLID_348_" d="m316.914 335.927h195.086v65.226h-195.086z" fill="#00aadf"/><path id="XMLID_408_" d="m316.914 39.833h15.001v38.493h-15.001z" fill="#ffb64c"/><path id="XMLID_814_" d="m316.914 104.072v92.457c25.491 0 46.228-20.738 46.228-46.229s-20.737-46.228-46.228-46.228z" fill="#ffb64c"/></g></svg>