<svg id="Capa_1" enable-background="new 0 0 510.667 510.667" height="512" viewBox="0 0 510.667 510.667" width="512" xmlns="http://www.w3.org/2000/svg"><g id="XMLID_773_"><path id="XMLID_1295_" d="m69.333 0h120v84.747h-120z" fill="#00607f"/><g id="XMLID_774_"><path id="XMLID_819_" d="m395.333 27.167h30v42.58h-30z" fill="#00465f"/></g><path id="XMLID_1560_" d="m39.333 54.747h432v284h-432z" fill="#a7d2d7"/><path id="XMLID_1976_" d="m255.334 54.747h216v284h-216z" fill="#7ba0b0"/><path id="XMLID_250_" d="m21.333 308.747h468v141.92h-468z" fill="#e4ebef"/><path id="XMLID_1893_" d="m255.334 308.747h234v141.92h-234z" fill="#c7e2e5"/><path id="XMLID_318_" d="m90.333 376.667h330v134h-330z" fill="#fef2f3"/><path id="XMLID_1868_" d="m255.334 376.667h165v134h-165z" fill="#e4ebef"/><path id="XMLID_758_" d="m150.784 376.667h209.1v77h-209.1z" fill="#e29a74"/><path id="XMLID_1843_" d="m255.334 376.667h104.55v77h-104.55z" fill="#c5715a"/><g id="XMLID_100_"><path id="XMLID_1288_" d="m78.333 366.667h354v30h-354z" fill="#00607f"/></g><circle id="XMLID_1281_" cx="255.334" cy="197.247" fill="#fef2f3" r="71"/><path id="XMLID_1964_" d="m255.334 126.247v142c39.212 0 71-31.788 71-71s-31.788-71-71-71z" fill="#e4ebef"/><path id="XMLID_1283_" d="m255.333 283.247c-47.421 0-86-38.58-86-86s38.579-86 86-86 86 38.58 86 86-38.579 86-86 86zm0-142c-30.879 0-56 25.122-56 56s25.121 56 56 56 56-25.122 56-56-25.121-56-56-56z" fill="#00607f"/><g id="XMLID_277_"><g id="XMLID_1276_"><path id="XMLID_109_" d="m255.334 212.247c7.846 0 15.363-6.899 15-15-.364-8.127-6.591-15-15-15-7.846 0-15.363 6.899-15 15 .364 8.127 6.59 15 15 15z" fill="#e4ebef"/></g></g><g id="XMLID_313_"><path id="XMLID_1282_" d="m359.333 116.667h51v30h-51z" fill="#ff5b5b"/></g><path id="XMLID_1928_" d="m255.334 182.247v30c7.846 0 15.363-6.899 15-15-.364-8.127-6.591-15-15-15z" fill="#a7d2d7"/><g fill="#00465f"><path id="XMLID_1918_" d="m255.334 111.247v30c30.879 0 56 25.122 56 56s-25.121 56-56 56v30c47.421 0 86-38.58 86-86s-38.58-86-86-86z"/><path id="XMLID_581_" d="m255.334 366.667h177v30h-177z"/></g></g></svg>