<svg id="Capa_1" enable-background="new 0 0 508.336 508.336" height="512" viewBox="0 0 508.336 508.336" width="512" xmlns="http://www.w3.org/2000/svg"><g id="XMLID_95_"><path id="XMLID_2179_" d="m410 399.997v-349.837c0-27.659-22.502-50.16-50.16-50.16h-211.344c-27.658 0-50.16 22.501-50.16 50.16v349.837l155.832 43.003z" fill="#75e2f8"/><path id="XMLID_925_" d="m359.84 0h-105.672v443l155.832-43.003v-349.837c0-27.659-22.502-50.16-50.16-50.16z" fill="#00cef5"/><path id="XMLID_2227_" d="m98.338 399.997v58.18c0 27.658 22.502 50.16 50.16 50.16h211.34c27.658 0 50.16-22.502 50.16-50.16v-58.18z" fill="#fef2f3"/><path id="XMLID_371_" d="m254.168 399.997v108.34h105.67c27.658 0 50.16-22.502 50.16-50.16v-58.18z" fill="#e4ebef"/><path id="XMLID_96_" d="m254.168 458c7.846 0 15.363-6.899 15-15-.364-8.127-6.591-15-15-15-7.846 0-15.363 6.899-15 15 .364 8.127 6.591 15 15 15z" fill="#a7d2d7"/><path id="XMLID_2200_" d="m174.283 303.932h176.053v30h-176.053z" fill="#00607f"/><path id="XMLID_2199_" d="m159.283 291h30v59.333h-30z" fill="#00465f"/><path id="XMLID_120_" d="m158 51.634h192.336v209.065h-192.336z" fill="#ff9468"/><path id="XMLID_416_" d="m254.168 51.634h96.168v209.065h-96.168z" fill="#ff5b5b"/><path id="XMLID_113_" d="m254.168 202.168c-24.722 0-44.835-20.113-44.835-44.835s20.113-44.835 44.835-44.835 44.835 20.113 44.835 44.835-20.113 44.835-44.835 44.835zm0-59.67c-8.18 0-14.835 6.655-14.835 14.835s6.655 14.835 14.835 14.835 14.835-6.655 14.835-14.835-6.655-14.835-14.835-14.835z" fill="#ffde46"/><path id="XMLID_185_" d="m254.168 303.932h96.168v30h-96.168z" fill="#00465f"/><path id="XMLID_106_" d="m254.168 112.498v30c8.18 0 14.835 6.655 14.835 14.835s-6.655 14.835-14.835 14.835v30c24.722 0 44.835-20.113 44.835-44.835s-20.113-44.835-44.835-44.835z" fill="#ffb64c"/><path id="XMLID_379_" d="m254.168 428v30c7.846 0 15.363-6.899 15-15-.364-8.127-6.591-15-15-15z" fill="#7ba0b0"/></g></svg>