<svg id="Capa_1" enable-background="new 0 0 504.133 504.133" height="512" viewBox="0 0 504.133 504.133" width="512" xmlns="http://www.w3.org/2000/svg"><g id="XMLID_783_"><path id="XMLID_108_" d="m0 11.532v262.745h67.765l66.022 65.525 21.842-65.525h26.415l140.045-109.946v-152.799z" fill="#fef2f3"/><path id="XMLID_1903_" d="m161.23 11.532v262.745h20.814l140.045-109.946v-152.799z" fill="#e4ebef"/><path id="XMLID_166_" d="m238.559 117.837-2.286-18.856-32.681 12.098c-11.844-25.957-31.56-43.814-32.543-44.695l-9.819-8.791-9.981 8.606c-.975.841-20.657 18.034-32.762 44.876l-32.672-12.094-2.286 18.856c-.232 1.916-5.394 47.271 20.248 76.462 13.501 15.37 32.414 23.267 56.213 23.473h2.042.065c16.834-.146 31.389-4.226 43.258-12.125l17.977-17.799c19.937-28.932 15.429-68.348 15.227-70.011z" fill="#ffb64c"/><path id="XMLID_1905_" d="m238.559 117.837-2.286-18.856-32.681 12.098c-11.844-25.957-31.56-43.814-32.543-44.695l-9.819-8.791v160.18h.803.065c16.834-.146 31.389-4.226 43.258-12.125l17.977-17.799c19.936-28.933 15.428-68.349 15.226-70.012z" fill="#ff9468"/><path id="XMLID_219_" d="m182.044 164.331v262.744h166.46l21.843 65.526 66.022-65.526h67.764v-262.744z" fill="#fef2f3"/><path id="XMLID_1846_" d="m343.089 164.331v262.744h5.415l21.843 65.526 66.022-65.526h67.764v-262.744z" fill="#e4ebef"/><path id="XMLID_427_" d="m379.213 219.691c-12.092-.324-23.528 4.127-32.189 12.554-1.417 1.379-2.73 2.834-3.935 4.357-1.205-1.523-2.518-2.979-3.935-4.357-8.661-8.427-20.078-12.868-32.189-12.554-23.79.652-43.144 20.881-43.144 45.093 0 16.067 6.257 31.172 17.617 42.532l61.651 61.651 61.651-61.651c11.36-11.36 17.617-26.465 17.617-42.532 0-24.211-19.354-44.44-43.144-45.093z" fill="#ff5b5b"/><path id="XMLID_1850_" d="m379.213 219.691c-12.092-.324-23.528 4.127-32.189 12.554-1.417 1.379-2.73 2.834-3.935 4.357v132.365l61.651-61.651c11.36-11.36 17.617-26.465 17.617-42.532 0-24.211-19.354-44.44-43.144-45.093z" fill="#ff193d"/></g></svg>