<svg id="Capa_1" enable-background="new 0 0 510.926 510.926" height="512" viewBox="0 0 510.926 510.926" width="512" xmlns="http://www.w3.org/2000/svg"><g id="XMLID_61_"><g id="XMLID_116_"><path id="XMLID_1449_" d="m11.463 205.293h38v30h-38z" fill="#00465f"/></g><g id="XMLID_114_"><path id="XMLID_1439_" d="m413.129 157.667h-30c0-70.396-57.271-127.667-127.666-127.667s-127.667 57.271-127.667 127.667h-30c0-86.938 70.729-157.667 157.667-157.667s157.666 70.729 157.666 157.667z" fill="#00465f"/></g><g id="XMLID_239_"><path id="XMLID_1438_" d="m385.59 165.872c-28.871-43.981-77.517-70.238-130.127-70.238s-101.256 26.257-130.127 70.238l-25.079-16.463c17.747-27.035 41.012-48.173 69.15-62.828 26.314-13.704 56.071-20.948 86.056-20.948s59.742 7.244 86.056 20.948c28.138 14.654 51.404 35.792 69.15 62.828z" fill="#00465f"/></g><path id="XMLID_1792_" d="m255.463 0v30c70.396 0 127.667 57.271 127.667 127.667h30c-.001-86.938-70.73-157.667-157.667-157.667z" fill="#002c3c"/><path id="XMLID_2052_" d="m341.519 86.581c-26.314-13.704-56.071-20.948-86.056-20.948v30c52.61 0 101.256 26.257 130.127 70.238l25.079-16.463c-17.747-27.034-41.012-48.173-69.15-62.827z" fill="#002c3c"/><g id="XMLID_260_"><path id="XMLID_1298_" d="m151.688 510.926c-29.716 0-53.892-24.176-53.892-53.892v-170.088l30-22.768v192.855c0 13.174 10.718 23.892 23.892 23.892s23.892-10.718 23.892-23.892v-.712c0-29.716 24.176-53.892 53.892-53.892h33.99v30h-33.99c-13.174 0-23.892 10.718-23.892 23.892v.712c.001 29.717-24.175 53.893-53.892 53.893z" fill="#00465f"/></g><g id="XMLID_105_"><path id="XMLID_1349_" d="m461.463 207.293h38v30h-38z" fill="#002c3c"/></g><path id="XMLID_86_" d="m32.463 181.318v81.951c0 26.326 21.341 47.667 47.667 47.667 26.326 0 47.667-21.341 47.667-47.667v-81.951c0-26.326-21.341-47.667-47.667-47.667-26.326 0-47.667 21.341-47.667 47.667z" fill="#a7d2d7"/><path id="XMLID_397_" d="m383.046 181.318v81.951c0 26.326 21.341 47.667 47.667 47.667 26.326 0 47.667-21.341 47.667-47.667v-81.951c0-26.326-21.341-47.667-47.667-47.667-26.326 0-47.667 21.341-47.667 47.667z" fill="#7ba0b0"/><g id="XMLID_627_"><path id="XMLID_1291_" d="m285.463 332.307-30-5v-26.5h30z" fill="#002c3c"/></g><path id="XMLID_1452_" d="m255.463 327.307h120.384v183.118h-120.384z" fill="#7ba0b0"/><g id="XMLID_88_"><path id="XMLID_1290_" d="m343.905 392.436h31.942v30h-31.942z" fill="#002c3c"/></g></g></svg>