<svg id="Capa_1" enable-background="new 0 0 510.425 510.425" height="512" viewBox="0 0 510.425 510.425" width="512" xmlns="http://www.w3.org/2000/svg"><g id="XMLID_159_"><path id="XMLID_1014_" d="m337.546 22.04-.005 478.031 166.718-410.288z" fill="#a7d2d7"/><g id="XMLID_230_"><g id="XMLID_134_"><path id="XMLID_1180_" d="m402.415 151.946c7.846 0 15.363-6.899 15-15-.364-8.127-6.591-15-15-15-7.846 0-15.363 6.899-15 15 .364 8.127 6.591 15 15 15z" fill="#002c3c"/></g></g><path id="XMLID_82_" d="m6.166 0h361.376v510.425h-361.376z" fill="#fef2f3"/><path id="XMLID_1189_" d="m189.229 0h178.313v510.425h-178.313z" fill="#e4ebef"/><g id="XMLID_761_"><path id="XMLID_136_" d="m174.229 241.121h30v114.527h-30z" fill="#00465f"/></g><g id="XMLID_85_"><path id="XMLID_135_" d="m147.954 340.648h82.604v30h-82.604z" fill="#00607f"/></g><path id="XMLID_187_" d="m252.043 208.564-62.815-62.815-62.815 62.815c-11.828 11.828-18.341 27.553-18.341 44.28 0 25.784 20.643 47.327 46.017 48.023 12.908.362 25.092-4.401 34.33-13.389.273-.266.543-.534.809-.805.266.271.535.54.809.805 8.917 8.676 20.586 13.408 32.99 13.408.445 0 .893-.006 1.34-.018 25.374-.696 46.017-22.239 46.017-48.023.001-16.728-6.514-32.454-18.341-44.281z" fill="#00607f"/><g id="XMLID_152_"><g id="XMLID_133_"><path id="XMLID_89_" d="m86.028 97.797c7.846 0 15.363-6.899 15-15-.364-8.127-6.591-15-15-15-7.846 0-15.363 6.899-15 15 .364 8.127 6.591 15 15 15z" fill="#00607f"/></g></g><g id="XMLID_184_"><g id="XMLID_132_"><path id="XMLID_93_" d="m289.42 444.934c7.846 0 15.363-6.899 15-15-.364-8.127-6.591-15-15-15-7.846 0-15.363 6.899-15 15 .364 8.127 6.591 15 15 15z" fill="#00465f"/></g></g><path id="XMLID_614_" d="m189.229 241.121h15v114.527h-15z" fill="#002c3c"/><g fill="#00465f"><path id="XMLID_2035_" d="m189.229 340.648h41.329v30h-41.329z"/><path id="XMLID_2046_" d="m252.043 208.564-62.815-62.815v140.923c.266.271.535.54.809.805 8.917 8.677 20.586 13.408 32.99 13.408.445 0 .893-.006 1.34-.018 25.374-.696 46.017-22.239 46.017-48.023.001-16.727-6.514-32.453-18.341-44.28z"/></g></g></svg>