<svg id="Capa_1" enable-background="new 0 0 511 511" height="512" viewBox="0 0 511 511" width="512" xmlns="http://www.w3.org/2000/svg"><g id="XMLID_452_"><path id="XMLID_1986_" d="" fill="#ff5b5b"/><path id="XMLID_73_" d="m352.008 349.629c4.241-2.451 10.529-6.494 14.434-9.685l71.701-57.204c18.558-15.83 33.259-35.687 42.984-58.056l.19-.437c26.254-60.401 12.9-130.713-33.67-177.283-46.57-46.57-116.882-59.924-177.283-33.67l-.437.19c-22.37 9.725-42.226 24.426-58.056 42.984l-57.204 71.701c-3.34 4.088-7.151 9.984-9.681 14.437l93.624 113.394z" fill="#ff5b5b"/><path id="XMLID_77_" d="m447.646 46.964c46.57 46.57 59.924 116.882 33.67 177.283l-.19.437c-9.725 22.37-24.426 42.226-42.984 58.056l-71.701 57.204c-3.905 3.191-10.193 7.234-14.434 9.685l-113.397-93.629z" fill="#ff193d"/><path id="XMLID_778_" d="m47.69 378.881 68.033 68.043 28.445-39.393c23.95-33.177 56.88-58.805 94.929-73.872.57-.516 1.28-.774 1.99-.774.764 0 1.527.29 2.108.871 17.863 17.874 41.415 26.951 65.064 26.951 15.024 0 30.091-3.667 43.749-11.077l-207.023-207.024c-19.057 35.145-13.368 79.583 15.863 108.813.581.581.871 1.334.871 2.097 0 .721-.258 1.43-.774 2-7.528 19.014-17.702 36.759-30.134 52.751-12.443 15.981-27.133 30.209-43.728 42.179z" fill="#00607f"/><path id="XMLID_78_" d="m248.494 246.116 103.513 103.513c-13.658 7.41-28.725 11.077-43.749 11.077-23.649 0-47.201-9.077-65.064-26.951-.581-.581-1.344-.871-2.108-.871-.71 0-1.42.258-1.99.774-38.049 15.067-70.979 40.695-94.929 73.872l-28.445 39.393-34.016-34.021z" fill="#00465f"/><path id="XMLID_1917_" d="m71.337 330.154h30.964v168.24h-30.964z" fill="#00465f" transform="matrix(.707 -.707 .707 .707 -267.507 182.728)"/><path id="XMLID_81_" d="m99.457 398.042h30.964v88.703h-30.964z" fill="#002c3c" transform="matrix(.707 -.707 .707 .707 -279.155 210.847)"/><circle id="XMLID_435_" cx="381.317" cy="467.65" fill="#a7d2d7" r="43.35"/></g></svg>