<svg id="Capa_1" enable-background="new 0 0 509.79 509.79" height="512" viewBox="0 0 509.79 509.79" width="512" xmlns="http://www.w3.org/2000/svg"><g id="XMLID_1036_"><path id="XMLID_1054_" d="m239.895 377.871h30v88.47h-30z" fill="#a7d2d7"/><path id="XMLID_1034_" d="m254.29 377.871h15.605v88.47h-15.605z" fill="#7ba0b0"/><path id="XMLID_1052_" d="m84.375 451.341h341.041v30h-341.041z" fill="#00465f"/><path id="XMLID_1050_" d="m0 28.449h509.79v364.422h-509.79z" fill="#fef2f3"/><path id="XMLID_1029_" d="m254.29 28.449h255.5v364.422h-255.5z" fill="#e4ebef"/><path id="XMLID_1037_" d="m310.674 169.974h-111.558v-45.618c0-30.423 24.75-55.173 55.173-55.173h1.211c30.423 0 55.173 24.75 55.173 55.173v45.618zm-81.558-30h51.558v-15.618c0-13.881-11.292-25.173-25.173-25.173h-1.211c-13.881 0-25.173 11.292-25.173 25.173v15.618z" fill="#ffb64c"/><path id="XMLID_1919_" d="m333.477 136.974h-157.164l-13.915 167.988h184.994z" fill="#f8e5ca"/><path id="XMLID_1032_" d="m254.29 451.341h171.126v30h-171.126z" fill="#002c3c"/><path id="XMLID_1028_" d="m255.5 69.182h-1.211v30h1.211c13.881 0 25.173 11.292 25.173 25.173v15.618h-26.383v30h56.384v-45.618c0-30.422-24.751-55.173-55.174-55.173z" fill="#ff9468"/><path id="XMLID_1027_" d="m254.29 304.962h93.102l-13.915-167.988h-79.187z" fill="#f1c992"/></g></svg>