<svg id="Capa_1" enable-background="new 0 0 508.829 508.829" height="512" viewBox="0 0 508.829 508.829" width="512" xmlns="http://www.w3.org/2000/svg"><g id="XMLID_227_"><path id="XMLID_704_" d="m0 .415h385v508h-385z" fill="#fef2f3"/><path id="XMLID_62_" d="m201.12.415h183.88v508h-183.88z" fill="#e4ebef"/><path id="XMLID_1513_" d="m473.122 32.228h-2.133c-19.69 0-35.708 16.018-35.708 35.708v16.405l36.774 37.157 36.774-37.157v-16.405c0-19.689-16.018-35.708-35.707-35.708z" fill="#00607f"/><path id="XMLID_2011_" d="m473.122 32.228h-1.067v89.27l36.774-37.157v-16.405c0-19.689-16.018-35.708-35.707-35.708z" fill="#00465f"/><path id="XMLID_1287_" d="m435.281 84.341v318.41l36.774 15.126 36.774-15.126v-318.41z" fill="#c7e2e5"/><path id="XMLID_2014_" d="m472.055 84.341v333.536l36.774-15.126v-318.41z" fill="#a7d2d7"/><g fill="#c7e2e5"><path id="XMLID_1350_" d="m72 81.415h129.12v30h-129.12z"/><path id="XMLID_1297_" d="m74.904 157.415h235.192v30h-235.192z"/><path id="XMLID_1296_" d="m74.904 219.415h235.192v30h-235.192z"/><path id="XMLID_1293_" d="m74.904 281.415h235.192v30h-235.192z"/><path id="XMLID_1292_" d="m74.904 343.415h235.192v30h-235.192z"/><path id="XMLID_1289_" d="m74.904 405.415h71.096v30h-71.096z"/></g><path id="XMLID_1620_" d="m435.281 402.751h73.548l-36.774 79.217z" fill="#00607f"/><path id="XMLID_2016_" d="m472.055 402.751v79.217l36.774-79.217z" fill="#00465f"/><path id="XMLID_63_" d="m201.12 343.415h108.977v30h-108.977z" fill="#a7d2d7"/><path id="XMLID_64_" d="m201.12 281.415h108.977v30h-108.977z" fill="#a7d2d7"/><path id="XMLID_66_" d="m201.12 219.415h108.977v30h-108.977z" fill="#a7d2d7"/><path id="XMLID_174_" d="m201.12 157.415h108.977v30h-108.977z" fill="#a7d2d7"/></g></svg>