<svg id="Capa_1" enable-background="new 0 0 509.333 509.333" height="512" viewBox="0 0 509.333 509.333" width="512" xmlns="http://www.w3.org/2000/svg"><g id="XMLID_58_"><path id="XMLID_425_" d="m83.334 350.333-68.334-80v-37.167c0-112.39 91.11-203.5 203.5-203.5h72.333c112.39 0 203.5 91.11 203.5 203.5v37.167l-68.334 80z" fill="#fef2f3"/><path id="XMLID_810_" d="m83.334 350.333-68.334-80v-37.167c0-112.39 91.11-203.5 203.5-203.5h72.333c112.39 0 203.5 91.11 203.5 203.5v37.167l-68.334 80z" fill="#fef2f3"/><path id="XMLID_890_" d="m290.833 29.667h-37.5v320.667h172.667l68.334-80v-37.167c-.001-112.39-91.111-203.5-203.501-203.5z" fill="#e4ebef"/><path id="XMLID_350_" d="m432.915 365.333-93.118.003-84.63-10.003-88.3 10.003-90.448-.003-76.419-89.466v-42.701c0-58.364 22.728-113.234 63.997-154.503s96.139-63.996 154.503-63.996h72.333c58.363 0 113.233 22.728 154.503 63.997s63.997 96.14 63.997 154.503v42.701zm-342.667-30 70.698.003 94.22 9.998 90.55-9.998 73.368-.003 60.249-70.534v-31.632c0-103.939-84.561-188.5-188.5-188.5h-72.333c-103.939 0-188.5 84.561-188.5 188.5v31.632z" fill="#ff9468"/><path id="XMLID_878_" d="m445.336 78.664c-41.27-41.269-96.14-63.997-154.503-63.997h-37.5v30h37.5c103.939 0 188.5 84.561 188.5 188.5v31.632l-60.249 70.534-73.368.003-90.55 9.998-1.834-.195v10.4l1.834-.208 84.63 10.003 93.118-.003 76.419-89.466v-42.701c0-58.361-22.727-113.231-63.997-154.5z" fill="#ff5b5b"/><path id="XMLID_724_" d="m358.333 237.667h-210v-142h210zm-180-30h150v-82h-150z" fill="#00607f"/><path id="XMLID_60_" d="m358.333 237.667h-210v-142h210zm-180-30h150v-82h-150z" fill="#00607f"/><path id="XMLID_715_" d="m340.379 494.667h-174.092l2.167-16.908c6.395-49.876 3.354-99.876-9.036-148.61l-18.376-50.482h224.582l-18.378 50.482c-12.39 48.733-15.43 98.733-9.035 148.61zm-140.336-30h106.581c-4.248-48.014-.376-96.006 11.549-142.91l5.87-23.09h-141.419l5.871 23.09c11.924 46.904 15.796 94.896 11.548 142.91z" fill="#a7d2d7"/><path id="XMLID_355_" d="m340.379 494.667h-174.092l2.167-16.908c6.395-49.876 3.354-99.876-9.036-148.61l-18.376-50.482h224.582l-20.378 50.482c-12.39 48.733-16.43 98.733-10.035 148.61zm-140.336-30h106.581c-4.248-48.014 3.624-96.006 15.549-142.91l1.87-23.09h-141.419l5.871 23.09c11.924 46.904 15.796 94.896 11.548 142.91z" fill="#c7e2e5"/><path id="XMLID_849_" d="m365.625 278.667h-112.292v20h70.709l-5.87 23.09c-11.925 46.904-15.797 94.896-11.549 142.91h-53.291v30h87.046l-2.168-16.908c-4.826-37.64-4.278-75.349 1.605-112.532.695-4.395-3.535-8.782-2.69-13.161 1.083-5.618 7.289-11.223 8.618-16.811.484-2.037.985-4.073 1.502-6.106z" fill="#a7d2d7"/><path id="XMLID_807_" d="m373.333 268.667h-236.333c-8.284 0-15 6.716-15 15s6.716 15 15 15h99.667v36.67h-75.72c2.36 9.96 4.33 19.96 5.92 30h69.8v32h-66.08c.76 9.98 1.13 19.98 1.12 30h64.96v67.33h33v-67.33h60.29c-.01-10.02.36-20.02 1.12-30h-61.41v-32h65.13c1.59-10.04 3.56-20.04 5.92-30h-71.05v-36.67h103.667c8.284 0 15-6.716 15-15s-6.716-15-15.001-15z" fill="#a7d2d7"/><path id="XMLID_863_" d="m253.333 95.667v30h75v82h-75v30h105v-142z" fill="#00465f"/><path id="XMLID_869_" d="m373.333 268.667h-120v226h16.333v-67.33h65.29c-.01-10.02.36-20.02 1.12-30h-66.41v-32h70.13c1.59-10.04 3.56-20.04 5.92-30h-76.05v-36.67h103.667c8.284 0 15-6.716 15-15s-6.715-15-15-15z" fill="#7ba0b0"/></g></svg>