<svg id="Capa_1" enable-background="new 0 0 512 512" height="512" viewBox="0 0 512 512" width="512" xmlns="http://www.w3.org/2000/svg"><g id="XMLID_1336_"><path id="XMLID_1361_" d="m137.98 388.987h30v79.327h-30z" fill="#00dd7b"/><path id="XMLID_1617_" d="m152.98 388.987h15v79.327h-15z" fill="#22bf66"/><path id="XMLID_1345_" d="m198.678 310.314c-18.902 0-35.623 9.472-45.697 23.911-10.074-14.438-26.795-23.911-45.696-23.911h-50.5v32.976c0 30.711 24.985 55.697 55.696 55.697h81c30.712 0 55.697-24.986 55.697-55.697v-32.976z" fill="#91eb90"/><path id="XMLID_1348_" d="m414.333 468.314h-30v-75c0-10.477-8.523-19-19-19h-22.333v-30h22.333c23.803 0 43.696 17.059 48.094 39.594 9.795-6.279 21.431-9.921 33.903-9.921h14.266v30h-14.266c-18.194 0-32.997 14.802-32.997 32.997z" fill="#00dd7b"/><path id="XMLID_1678_" d="m447.33 373.987c-12.473 0-24.108 3.642-33.903 9.921-1.674-8.581-5.601-16.363-11.129-22.717v107.123h12.035v-31.33c0-18.195 14.803-32.997 32.997-32.997h14.266v-30z" fill="#22bf66"/><path id="XMLID_1360_" d="m0 453.314h512v30h-512z" fill="#ff9468"/><path id="XMLID_1347_" d="m222.333 175.626h100.354v30h-100.354z" fill="#00607f"/><path id="XMLID_1353_" d="m434.474 144.6-76.387-76.387 23.707-23.707c10.201-10.202 23.766-15.82 38.193-15.82s27.991 5.618 38.193 15.82c21.06 21.061 21.06 55.327 0 76.387zm-33.961-76.387 33.961 33.96 2.494-2.494c9.362-9.363 9.362-24.598 0-33.961-4.536-4.536-10.566-7.033-16.98-7.033-6.415 0-12.444 2.498-16.98 7.033z" fill="#00465f"/><path id="XMLID_1371_" d="m292.855 57.233h156.59v184.686h-156.59z" fill="#e4ebef" transform="matrix(.707 -.707 .707 .707 2.941 306.252)"/><path id="XMLID_1352_" d="m167.98 292.981h-30v-13.314c0-35.852 29.168-65.019 65.02-65.019v30c-19.31 0-35.02 15.709-35.02 35.019z" fill="#75e2f8"/><path id="XMLID_1619_" d="m198.678 310.314c-18.902 0-35.623 9.472-45.697 23.911v64.762h40.5c30.712 0 55.697-24.986 55.697-55.697v-32.976z" fill="#00dd7b"/><path id="XMLID_1616_" d="m272.51 453.314h239.49v30h-239.49z" fill="#ff5b5b"/><path id="XMLID_1649_" d="m361.216 28.917v221.451l19.867 19.867 110.726-110.726z" fill="#c7e2e5"/></g></svg>