<svg id="Capa_1" enable-background="new 0 0 512.994 512.994" height="512" viewBox="0 0 512.994 512.994" width="512" xmlns="http://www.w3.org/2000/svg"><g id="XMLID_436_"><path id="XMLID_39_" d="m.791 386.816c0-48.146 39.03-87.176 87.176-87.176 12.995 0 25.323 2.847 36.398 7.949 29.727 13.695 61.83 21.481 94.56 21.481h72.507c0 38.776-31.434 70.211-70.211 70.211l93.334-.078 101.497-71.898c31.953-21.409 75.186-13.111 96.941 18.608l-160.83 136.913c-17.084 14.543-38.787 22.53-61.223 22.53h-290.94z" fill="#ffcbbc"/><path id="XMLID_459_" d="m388.69 76.537-3.092-16.922-16.343 5.367c-1.676.55-41.447 13.733-77.349 36.251l-44.625 167.45c7.226 3.53 15.308 5.282 23.966 5.282 12.725 0 26.694-3.785 41.008-11.272 21.863-11.436 42.604-30.485 58.404-53.642 32.942-48.279 18.655-129.097 18.031-132.514z" fill="#ff193d"/><path id="XMLID_2078_" d="m215.825 101.234c-35.902-22.518-75.673-35.701-77.349-36.251l-16.343-5.367-3.092 16.922c-.624 3.417-14.911 84.234 18.031 132.515 15.8 23.156 36.541 42.206 58.404 53.642 14.315 7.487 28.281 11.272 41.008 11.272 8.657-.001 16.741-1.753 23.966-5.282z" fill="#ff5b5b"/><path id="XMLID_2087_" d="m266.088 24.815-12.222-17.177-12.222 17.177c-2.488 3.496-60.926 86.252-60.926 140.929 0 59.699 32.13 106.463 73.147 106.463s73.147-46.764 73.147-106.463c.001-54.677-58.437-137.433-60.924-140.929z" fill="#ff9468"/><path id="XMLID_287_" d="m266.088 24.815-12.222-17.177v264.568c41.017 0 73.147-46.764 73.147-106.463 0-54.676-58.438-137.432-60.925-140.928z" fill="#ff5b5b"/><g id="XMLID_255_" fill="#ffbca8"><path id="XMLID_256_" d="m291.433 329.069h-37.567v62.158c22.331-11.752 37.567-35.17 37.567-62.158z"/><path id="XMLID_265_" d="m416.053 327.304-101.497 71.898-60.69.051v106.104h37.074c22.436 0 44.139-7.987 61.223-22.53l160.832-136.914c-21.756-31.72-64.988-40.018-96.942-18.609z"/></g></g></svg>