<svg id="Capa_1" enable-background="new 0 0 508.7 508.7" height="512" viewBox="0 0 508.7 508.7" width="512" xmlns="http://www.w3.org/2000/svg"><g id="XMLID_768_"><path id="XMLID_666_" d="m333.673 218.764-.979-1.679-41.083-41.086-1.687-.98c-43.583-25.346-96.147-20.924-127.825 10.756-3.901 3.901-7.465 8.169-10.594 12.686-7.1 10.248-18.558 16.964-31.437 18.428-31.127 3.539-59.031 16.86-80.693 38.523-55.121 55.122-51.985 147.947 6.99 206.923 30.798 30.799 70.819 46.366 109.89 46.366 35.746 0 70.698-13.039 97.034-39.375 21.663-21.664 34.984-49.567 38.522-80.693 1.464-12.879 8.181-24.338 18.429-31.438 4.519-3.131 8.787-6.695 12.686-10.595 31.715-31.715 36.134-84.283 10.747-127.836z" fill="#e29a74"/><path id="XMLID_190_" d="m332.694 217.085-20.539-20.541-265.79 265.79c30.798 30.799 70.819 46.366 109.89 46.366 35.746 0 70.698-13.039 97.034-39.375 21.663-21.664 34.984-49.567 38.522-80.693 1.464-12.879 8.181-24.338 18.429-31.438 4.519-3.131 8.787-6.695 12.686-10.595 31.715-31.714 36.134-84.281 10.746-127.835z" fill="#c5715a"/><path id="XMLID_832_" d="m187.671 128.164h301.522v84.208h-301.522z" fill="#f8e5ca" transform="matrix(.707 -.707 .707 .707 -21.273 289.177)"/><path id="XMLID_2063_" d="m202.557 164.102h301.522v42.104h-301.522z" fill="#f1c992" transform="matrix(.707 -.707 .707 .707 -27.438 304.065)"/><path id="XMLID_748_" d="m496.388 12.313c-16.417-16.416-43.129-16.417-59.544 0l-42.793 42.792 59.544 59.544 42.793-42.792c16.417-16.417 16.417-43.128 0-59.544z" fill="#e29a74"/><circle id="XMLID_99_" cx="219.815" cy="288.885" fill="#99503d" r="41.937"/><path id="XMLID_2064_" d="m249.469 259.231-59.307 59.307c16.377 16.377 42.93 16.377 59.307 0s16.377-42.93 0-59.307z" fill="#663325"/><path id="XMLID_622_" d="m219.815 345.821c-15.208 0-29.506-5.923-40.261-16.677-10.753-10.754-16.676-25.052-16.676-40.26s5.922-29.506 16.676-40.26 25.052-16.677 40.26-16.677 29.506 5.923 40.261 16.677c10.753 10.754 16.676 25.052 16.676 40.26s-5.922 29.506-16.676 40.26c-10.753 10.754-25.051 16.677-40.26 16.677zm0-83.873c-7.195 0-13.959 2.802-19.047 7.89-10.503 10.503-10.503 27.591 0 38.094 5.088 5.088 11.853 7.89 19.047 7.89s13.959-2.802 19.047-7.89c10.502-10.503 10.502-27.591 0-38.094-5.087-5.088-11.852-7.89-19.047-7.89z" fill="#c5715a"/><g id="XMLID_650_"><path id="XMLID_620_" d="m119.5 314.361h30v119.677h-30z" fill="#c5715a" transform="matrix(.707 -.707 .707 .707 -225.205 204.708)"/></g><g id="XMLID_749_"><path id="XMLID_619_" d="m54.408 162.088-19.404-22.879 21.035-17.84v-89.721h104v89.419l-33.638 27.666-19.056-23.169 22.694-18.666v-45.25h-44v73.614z" fill="#00465f"/></g><g id="XMLID_730_"><path id="XMLID_618_" d="m383.861 475.088-19.404-22.879 21.036-17.84v-89.721h23.881c30.695 0 55.667 24.972 55.667 55.667v17.667h-30v-17.667c0-12.045-8.339-22.179-19.547-24.93v72.876z" fill="#002c3c"/></g><g id="XMLID_55_"><g id="XMLID_161_"><path id="XMLID_41_" d="m285.039 63.315c7.846 0 15.363-6.899 15-15-.364-8.127-6.591-15-15-15-7.846 0-15.363 6.899-15 15 .364 8.128 6.591 15 15 15z" fill="#00465f"/></g></g><g id="XMLID_56_"><g id="XMLID_125_"><path id="XMLID_42_" d="m440.039 256.315c7.846 0 15.363-6.899 15-15-.364-8.127-6.591-15-15-15-7.846 0-15.363 6.899-15 15 .364 8.128 6.591 15 15 15z" fill="#002c3c"/></g></g><path id="XMLID_2062_" d="m140.656 365.436h30v59.839h-30z" fill="#99503d" transform="matrix(.707 -.707 .707 .707 -233.969 225.864)"/><path id="XMLID_2065_" d="m260.075 248.624-21.213 21.213c10.502 10.503 10.502 27.591 0 38.094-5.087 5.088-11.852 7.89-19.047 7.89s-13.959-2.802-19.047-7.89l-21.213 21.213c10.754 10.754 25.052 16.677 40.26 16.677s29.506-5.923 40.26-16.677 16.676-25.052 16.676-40.26-5.922-29.505-16.676-40.26c.001.001.001.001 0 0z" fill="#99503d"/><path id="XMLID_2075_" d="m496.388 12.312-72.565 72.565 29.772 29.772 42.793-42.792c16.417-16.417 16.417-43.128 0-59.545z" fill="#c5715a"/></g></svg>