<svg id="Capa_1" enable-background="new 0 0 512.524 512.524" height="512" viewBox="0 0 512.524 512.524" width="512" xmlns="http://www.w3.org/2000/svg"><g id="XMLID_375_"><path id="XMLID_1601_" d="m333.03 12.256-3.354-10.394h-287.928l-3.354 10.394c-25.477 78.951-38.394 161.047-38.394 244.006 0 82.96 12.918 165.055 38.394 244.006l3.354 10.394h237.768l91.886-240.389.063-2.581c2.103-86.491-10.11-167.657-38.435-255.436z" fill="#75e2f8"/><g fill="#00cef5"><path id="XMLID_1840_" d="m333.03 12.256-3.354-10.394h-143.734v508.799h93.574l91.886-240.389.063-2.581c2.103-86.49-10.11-167.656-38.435-255.435z"/><path id="XMLID_1609_" d="m269.192 417.732v30h-245.78c-2.48-9.96-4.76-19.96-6.84-30z"/><path id="XMLID_1606_" d="m355.312 94.782h-338.74c2.09-10.04 4.37-20.04 6.84-30h324.83c2.57 10.05 4.93 20.05 7.07 30z"/></g><path id="XMLID_1815_" d="m185.942 417.732h83.25v30h-83.25z" fill="#00aadf"/><path id="XMLID_1802_" d="m185.942 94.782h169.37c-2.14-9.95-4.5-19.95-7.07-30h-162.3z" fill="#00aadf"/><path id="XMLID_1612_" d="m254.191 252.327h258.333v258.334h-258.333z" fill="#e4ebef"/><path id="XMLID_1856_" d="m383.357 252.327h129.167v258.334h-129.167z" fill="#c7e2e5"/><path id="XMLID_36_" d="m326.168 343.837c7.846 0 15.363-6.899 15-15-.364-8.127-6.591-15-15-15-7.846 0-15.363 6.899-15 15 .364 8.127 6.591 15 15 15z" fill="#00607f"/><path id="XMLID_37_" d="m383.358 396.494c7.846 0 15.363-6.899 15-15-.364-8.127-6.591-15-15-15-7.846 0-15.363 6.899-15 15 .364 8.127 6.59 15 15 15z" fill="#00607f"/><path id="XMLID_38_" d="m440.547 449.152c7.846 0 15.363-6.899 15-15-.364-8.127-6.591-15-15-15-7.846 0-15.363 6.899-15 15 .364 8.127 6.591 15 15 15z" fill="#00465f"/><path id="XMLID_1861_" d="m383.358 366.494v30c7.846 0 15.363-6.899 15-15-.364-8.127-6.591-15-15-15z" fill="#00465f"/></g></svg>