<svg id="Capa_1" enable-background="new 0 0 509.573 509.573" height="512" viewBox="0 0 509.573 509.573" width="512" xmlns="http://www.w3.org/2000/svg"><g id="XMLID_18_"><path id="XMLID_1237_" d="m167.613 153.024-119.733 2.092c-30.429 19.849-47.88 51.979-47.88 88.152v233.518h215.492v-233.518c0-36.953-17.899-70.689-47.879-90.244z" fill="#ffcbbc"/><path id="XMLID_1554_" d="m167.612 153.024-59.866 1.046v322.717h107.746v-233.519c0-36.953-17.899-70.689-47.88-90.244z" fill="#ffbca8"/><path id="XMLID_1244_" d="m134.578 95.143h-53.664c-23.143 0-41.97 18.827-41.97 41.97v113.673c0 37.938 30.864 68.802 68.802 68.802 37.937 0 68.801-30.864 68.801-68.802v-113.673c0-23.143-18.827-41.97-41.969-41.97z" fill="#ff5b5b"/><path id="XMLID_392_" d="m436.758 30.587h-100.465l-10.532 209h121.529z" fill="#e4ebef"/><path id="XMLID_411_" d="m386.525 239.587h60.765l-10.532-209h-50.233z" fill="#a7d2d7"/><path id="XMLID_401_" d="m441.339 121.556h-109.628l1.506-30h106.616z" fill="#a7d2d7"/><path id="XMLID_389_" d="m499.692 221.673c-7.065-7.681-17.104-12.086-27.54-12.086h-171.255c-10.437 0-20.475 4.405-27.54 12.086-7.065 7.68-10.62 18.05-9.752 28.45l19.121 228.862h207.598l19.12-228.863c.869-10.399-2.685-20.769-9.752-28.449z" fill="#ff5b5b"/><path id="XMLID_415_" d="m499.692 221.673c-7.065-7.681-17.104-12.086-27.54-12.086h-85.627v269.398h103.799l19.12-228.863c.869-10.399-2.685-20.769-9.752-28.449z" fill="#ff193d"/><path id="XMLID_390_" d="m327.753 278.037 9.593 111h99.019l9.593-111z" fill="#ff9468"/><path id="XMLID_220_" d="m386.525 121.556h54.814l-1.506-30h-53.308z" fill="#7ba0b0"/><path id="XMLID_418_" d="m386.525 278.037v111h49.84l9.593-111z" fill="#ff5b5b"/><path id="XMLID_1542_" d="m134.578 95.143h-26.832v224.444c37.937 0 68.801-30.864 68.801-68.802v-113.672c0-23.143-18.827-41.97-41.969-41.97z" fill="#ff193d"/></g></svg>