<svg id="Capa_1" enable-background="new 0 0 508.875 508.875" height="512" viewBox="0 0 508.875 508.875" width="512" xmlns="http://www.w3.org/2000/svg"><g id="XMLID_126_"><path id="XMLID_57_" d="m.046 56.938h385v395h-385z" fill="#f8e5ca"/><path id="XMLID_930_" d="m192.546 56.938h192.5v395h-192.5z" fill="#f1c992"/><path id="XMLID_59_" d="m370.046 145.771c-35.216 0-62.552 9.571-81.247 28.449-21.136 21.34-31.194 53.954-30.752 99.704.239 24.787-11.158 46.721-30.487 58.672-21.536 13.314-49.124 12.602-77.681-2.012-48.282-24.703-85.267-19.205-107.794-10.241-24.535 9.763-37.4 25.354-38.786 27.1l-3.253 4.097v56.898l10 90 90 10h142l133-10 10-133v-219.667z" fill="#00dd7b"/><path id="XMLID_913_" d="m370.046 145.771c-35.216 0-62.552 9.571-81.247 28.449-21.136 21.34-31.194 53.954-30.752 99.704.239 24.787-11.158 46.721-30.487 58.672-10.441 6.455-22.307 9.603-35.014 9.478v166.364h49.5l133-10 10-133v-219.667z" fill="#22bf66"/><g id="XMLID_867_"><path id="XMLID_975_" d="m385.046 114.667v30.66h-3.33c-30.66 0-52.72 7.23-67.45 22.1-17.14 17.31-25.27 46.04-24.87 87.84.37 38.79-17.94 73.42-49 92.62-16.38 10.13-35.09 15.19-54.8 15.19-20.34 0-41.75-5.39-62.79-16.15-76.94-39.37-118.2 4.5-122.76 9.77v-39.25c5.22-3.23 11.27-6.4 18.18-9.14 24.75-9.84 65.41-15.87 118.55 11.32 32.12 16.43 63.19 17.21 87.5 2.18 21.84-13.51 34.73-38.27 34.46-66.25-.49-50.4 10.55-86.29 33.74-109.71 20.5-20.69 50.52-31.18 89.24-31.18z" fill="#ff9468"/></g><path id="XMLID_20_" d="m192.546 452.398c7.846 0 15.363-6.899 15-15-.364-8.127-6.591-15-15-15-7.846 0-15.363 6.899-15 15 .364 8.127 6.591 15 15 15z" fill="#ff9468"/><path id="XMLID_240_" d="m370.046 365.438c-70.579 0-128 57.421-128 128v15h143v-143z" fill="#ff5b5b"/><path id="XMLID_1824_" d="m.046.438v134.301l-.046 33.422 24.961-22.167c.251-.22 25.49-21.92 56.261-19.227 19.508 1.709 37.781 12.98 54.314 33.504 12.354 15.336 31.011 24.138 50.684 24.137 1.698 0 3.406-.065 5.116-.198 22.451-1.74 42.145-14.628 52.679-34.473 17.355-32.695 60.384-68.646 124.571-62.371l16.46 1.61v-88.538z" fill="#91eb90"/><path id="XMLID_900_" d="m192.546.438v183.66c21.947-2.102 41.125-14.873 51.469-34.36 17.355-32.695 60.384-68.646 124.571-62.371l16.46 1.61v-88.539z" fill="#00dd7b"/><path id="XMLID_229_" d="m15.046 408.438h-15v100h100v-15c0-46.87-38.131-85-85-85z" fill="#ff9468"/><path id="XMLID_21_" d="m94.046 231.438c7.846 0 15.363-6.899 15-15-.364-8.127-6.591-15-15-15-7.846 0-15.363 6.899-15 15 .364 8.127 6.591 15 15 15z" fill="#00dd7b"/><path id="XMLID_22_" d="m192.546 95.398c7.846 0 15.363-6.899 15-15-.364-8.127-6.591-15-15-15-7.846 0-15.363 6.899-15 15 .364 8.127 6.591 15 15 15z" fill="#ff9468"/><path id="XMLID_23_" d="m473.167 32.251h-2.133c-19.69 0-35.708 16.018-35.708 35.708v16.405l36.774 37.157 36.774-37.157v-16.405c.001-19.689-16.017-35.708-35.707-35.708z" fill="#ff9468"/><path id="XMLID_180_" d="m473.167 32.251h-1.067v89.27l36.774-37.157v-16.405c.001-19.689-16.017-35.708-35.707-35.708z" fill="#ff5b5b"/><path id="XMLID_24_" d="m435.327 84.364v318.41l36.774 15.126 36.774-15.126v-318.41z" fill="#f8e5ca"/><path id="XMLID_25_" d="m472.101 84.364v333.536l36.774-15.126v-318.41z" fill="#f1c992"/><path id="XMLID_29_" d="m435.327 402.774h73.548l-36.774 79.217z" fill="#ff9468"/><g fill="#ff5b5b"><path id="XMLID_34_" d="m472.101 402.774v79.217l36.774-79.217z"/><path id="XMLID_914_" d="m192.546 422.398v30c7.846 0 15.363-6.899 15-15-.364-8.127-6.591-15-15-15z"/><path id="XMLID_2347_" d="m192.546 65.398v30c7.846 0 15.363-6.899 15-15-.364-8.127-6.591-15-15-15z"/><path id="XMLID_84_" d="m381.716 114.667c-38.72 0-68.74 10.49-89.24 31.18-23.19 23.42-34.23 59.31-33.74 109.71.27 27.98-12.62 52.74-34.46 66.25-9.633 5.956-20.33 9.419-31.73 10.42v30.632c17.153-1.056 33.408-6.04 47.85-14.972 31.06-19.2 49.37-53.83 49-92.62-.4-41.8 7.73-70.53 24.87-87.84 14.73-14.87 36.79-22.1 67.45-22.1h3.33v-30.66z"/></g></g></svg>