<svg id="Capa_1" enable-background="new 0 0 507.971 507.971" height="512" viewBox="0 0 507.971 507.971" width="512" xmlns="http://www.w3.org/2000/svg"><g id="XMLID_19_"><path id="XMLID_421_" d="m76.258 277.309c5.744-55.63 17.372-103.845 31.106-128.976 28.805-52.709 65.199-75.997 90.658-86.253 27.907-11.239 48.913-9.887 51.216-9.695l-102.777 335.586h-70.167l-1.65-13.13c-2.69-21.402-2.011-62.419 1.614-97.532z" fill="#663325"/><path id="XMLID_598_" d="m108.484 412.665c.885-.735 8.745-7.538 15.89-22.448 7.093-14.804 14.905-40.817 11.839-80.679-6.709-87.253 2.809-150.808 29.099-194.295 20.997-34.733 49.519-49.958 68.757-58.333 4.37-26.319 19.746-40.175 32.596-47.295 14.779-8.188 28.936-8.956 30.501-9.017l15.491-.598.258 45.34c7.111 2.009 13.978 4.863 20.526 8.537 32.475 18.226 63.104 43.24 85.468 61.506 11.466 9.364 21.368 17.452 27.754 21.554 8.66 5.562 14.542 14.183 16.564 24.275 1.971 9.838.018 19.799-5.499 28.141-4.487 7.928-23.099 38.017-46.968 38.014-2.221 0-4.49-.261-6.795-.824l-46.646-11.809c-16.571-4.048-18.351-3.354-23.624-1.301-5.373 2.093-13.493 5.255-29.889 7.126-.885.101-1.77.189-2.655.267 5.1 10.565 12.438 24.569 19.241 37.554 13.242 25.271 29.722 56.722 45.161 90.285 15.114 32.857 11.847 55 10.092 66.896-.177 1.198-.397 2.689-.521 3.79l11.518 20.288h-269.116l-47.854.249z" fill="#e29a74"/><path id="XMLID_1502_" d="m463.227 161.212c-2.021-10.093-7.904-18.714-16.564-24.275-6.386-4.102-16.288-12.189-27.754-21.554-22.364-18.266-52.993-43.28-85.468-61.506-6.548-3.674-13.416-6.528-20.526-8.537l-.258-45.34-15.491.599c-1.565.061-15.722.828-30.501 9.017-5.065 2.806-10.52 6.665-15.541 11.915v418.108h135.519l-11.518-20.288c.124-1.101.344-2.592.521-3.79 1.755-11.896 5.022-34.038-10.092-66.896-15.439-33.563-31.919-65.015-45.161-90.285-6.804-12.984-14.142-26.988-19.241-37.554.886-.077 1.771-.166 2.655-.267 16.396-1.871 24.516-5.033 29.889-7.126 5.272-2.053 7.052-2.747 23.624 1.301l46.646 11.809c2.305.563 4.574.824 6.795.824 23.87.003 42.481-30.086 46.968-38.014 5.516-8.342 7.469-18.303 5.498-28.141z" fill="#c5715a"/><path id="XMLID_426_" d="m394.88 409.638h-293.77c-17.506 0-31.749 14.242-31.749 31.749v56.584h357.268v-56.584c0-17.507-14.243-31.749-31.749-31.749z" fill="#ff5b5b"/><path id="XMLID_103_" d="m394.88 409.638h-143.756v88.333h175.505v-56.584c0-17.507-14.243-31.749-31.749-31.749z" fill="#ff193d"/><path id="XMLID_1471_" d="m310.526 141.971c-7.846 0-15.363-6.899-15-15 .364-8.127 6.591-15 15-15 7.846 0 15.363 6.899 15 15-.364 8.127-6.59 15-15 15z" fill="#663325"/><path id="XMLID_414_" d="m43.995 477.971h408v30h-408z" fill="#99503d"/><path id="XMLID_1480_" d="m251.124 477.971h200.871v30h-200.871z" fill="#663325"/></g></svg>