<svg id="Capa_1" enable-background="new 0 0 507.546 507.546" height="512" viewBox="0 0 507.546 507.546" width="512" xmlns="http://www.w3.org/2000/svg"><g id="XMLID_1_"><path id="XMLID_341_" d="m264.909 178.836h30v49.085h-30z" fill="#00607f"/><path id="XMLID_1015_" d="m279.909 178.836h15v49.085h-15z" fill="#00465f"/><path id="XMLID_331_" d="m311.001 244.013h49.539v30h-49.539z" fill="#00465f"/><path id="XMLID_31_" d="m413.677 484.855-120.89-202.441-12.878 7.69-12.595-8.146-130.664 202.022 25.191 16.293 103.068-159.356v150.01h30v-146.447l93.011 155.756z" fill="#00607f"/><path id="XMLID_1057_" d="m292.787 282.414-12.878 7.69v200.823h15v-146.447l93.011 155.756 25.757-15.381z" fill="#00465f"/><path id="XMLID_351_" d="m279.909 305.104c-25.415 0-46.092-20.677-46.092-46.092s20.677-46.092 46.092-46.092 46.092 20.677 46.092 46.092-20.677 46.092-46.092 46.092zm0-62.183c-8.873 0-16.092 7.219-16.092 16.092s7.219 16.092 16.092 16.092 16.092-7.219 16.092-16.092-7.219-16.092-16.092-16.092z" fill="#00465f"/><path id="XMLID_1056_" d="m279.909 212.921v30c8.873 0 16.092 7.219 16.092 16.092s-7.219 16.092-16.092 16.092v30c25.415 0 46.092-20.677 46.092-46.092s-20.677-46.092-46.092-46.092z" fill="#002c3c"/><path id="XMLID_335_" d="m114.586 477.546h69.319v30h-69.319z" fill="#00465f"/><path id="XMLID_334_" d="m366.138 477.546h69.32v30h-69.32z" fill="#002c3c"/><path id="XMLID_332_" d="m245.249 477.546h69.319v30h-69.319z" fill="#00465f"/><path id="XMLID_14_" d="m55.54 432.854c7.846 0 15.363-6.899 15-15-.364-8.127-6.591-15-15-15-7.846 0-15.363 6.899-15 15 .364 8.128 6.591 15 15 15z" fill="#00cef5"/><path id="XMLID_15_" d="m465.54 390.854c7.846 0 15.363-6.899 15-15-.364-8.127-6.591-15-15-15-7.846 0-15.363 6.899-15 15 .364 8.128 6.591 15 15 15z" fill="#00aadf"/><path id="XMLID_17_" d="m47.54 49.854c7.846 0 15.363-6.899 15-15-.364-8.127-6.591-15-15-15-7.846 0-15.363 6.899-15 15 .364 8.128 6.591 15 15 15z" fill="#00cef5"/><path id="XMLID_899_" d="m153.373 315.688h-12.833v-12.834h-30v12.834h-12.834v30h12.834v12.833h30v-12.833h12.833z" fill="#ffde46"/><path id="XMLID_312_" d="m480.706 237.854h-12.833v-12.833h-30v12.833h-12.833v30h12.833v12.834h30v-12.834h12.833z" fill="#ffb64c"/><path id="XMLID_1073_" d="m279.909 477.546h34.66v30h-34.66z" fill="#002c3c"/><path id="XMLID_11_" d="m37.905 117.663h94.992v76.552h-94.992z" fill="#a7d2d7" transform="matrix(.986 -.168 .168 .986 -25.037 16.606)"/><path d="m41.06 154.869h94.992v39.079h-94.992z" fill="#7ba0b0" transform="matrix(.986 -.168 .168 .986 -28.1 17.399)"/><path id="XMLID_233_" d="m105.767 79.819h143.054v119.138h-143.054z" fill="#c7e2e5" transform="matrix(.986 -.168 .168 .986 -20.939 31.843)"/><path d="m110.785 139.004h143.054v59.529h-143.054z" fill="#a7d2d7" transform="matrix(.986 -.168 .168 .986 -25.815 33.108)"/><path id="XMLID_226_" d="m216.959 42.752h177.758v149.36h-177.758z" fill="#e4ebef" transform="matrix(.986 -.168 .168 .986 -15.406 53.173)"/><path d="m223.25 116.941h177.758v74.637h-177.758z" fill="#c7e2e5" transform="matrix(.986 -.168 .168 .986 -21.517 54.755)"/><path id="XMLID_221_" d="m363.112 7.707h106.949v181.613h-106.949z" fill="#a7d2d7" transform="matrix(.986 -.168 .168 .986 -10.64 71.547)"/><path d="m370.761 97.91h106.949v90.762h-106.949z" fill="#7ba0b0" transform="matrix(.986 -.168 .168 .986 -18.07 73.476)"/><path id="XMLID_12_" d="m32.441 105.665h30v115.177h-30z" fill="#00465f" transform="matrix(.986 -.168 .168 .986 -26.811 10.319)"/><path d="m37.152 161.232h30v59.21h-30z" fill="#002c3c" transform="matrix(.986 -.168 .168 .986 -31.385 11.505)"/></g></svg>