<svg id="Capa_1" enable-background="new 0 0 509.667 509.667" height="512" viewBox="0 0 509.667 509.667" width="512" xmlns="http://www.w3.org/2000/svg"><g id="XMLID_26_"><path id="XMLID_322_" d="m383.974 204.367c-9.639-12.196-28.154-19.772-48.321-19.772h-163.638c-20.167 0-38.684 7.576-48.322 19.772l-56.834 71.907h373.951z" fill="#00465f"/><path id="XMLID_539_" d="m254.833 276.275h185.976l-56.835-71.907c-9.639-12.196-28.154-19.772-48.321-19.772h-80.819v91.679z" fill="#002c3c"/><path id="XMLID_289_" d="m0 199.595h30v128.903h-30z" fill="#00465f"/><path id="XMLID_393_" d="m427.444 246.275h-345.221c-45.338 0-82.223 36.885-82.223 82.223v117.579c0 34.2 27.824 62.023 62.023 62.023h99.907c26.286 0 50.998-10.236 69.584-28.823l3.086-3.086c5.405-5.404 12.59-8.381 20.233-8.381s14.828 2.977 20.232 8.381l3.086 3.086c18.588 18.587 43.301 28.823 69.585 28.823h99.906c34.2 0 62.023-27.823 62.023-62.023v-117.579c.002-45.338-36.883-82.223-82.221-82.223z" fill="#00607f"/><path id="XMLID_545_" d="m427.444 246.275h-172.61v221.536c7.643 0 14.828 2.977 20.232 8.381l3.086 3.086c18.588 18.587 43.301 28.823 69.585 28.823h99.906c34.2 0 62.023-27.823 62.023-62.023v-117.58c.001-45.338-36.884-82.223-82.222-82.223z" fill="#00465f"/><path id="XMLID_7_" d="m366.667 339.522c7.846 0 15.363-6.899 15-15-.364-8.127-6.591-15-15-15-7.846 0-15.363 6.899-15 15 .364 8.127 6.591 15 15 15z" fill="#00cef5"/><path id="XMLID_8_" d="m422.493 339.522c7.846 0 15.363-6.899 15-15-.364-8.127-6.591-15-15-15-7.846 0-15.363 6.899-15 15 .364 8.127 6.591 15 15 15z" fill="#22bf66"/><g fill="#00cef5"><path id="XMLID_280_" d="m278.659 157.021c-13.138-13.136-34.513-13.137-47.651 0l-21.213-21.213c24.834-24.833 65.243-24.834 90.077 0z"/><path id="XMLID_198_" d="m304.962 110.1c-27.64-27.64-72.614-27.641-100.257 0l-21.213-21.213c39.338-39.339 103.345-39.337 142.683 0z"/><path id="XMLID_51_" d="m171.683 65.939-21.213-21.213c57.547-57.548 151.182-57.546 208.726 0l-21.213 21.213c-45.848-45.85-120.449-45.848-166.3 0z"/></g><path id="XMLID_417_" d="m254.833 1.566v29.987c30.113 0 60.225 11.462 83.15 34.386l21.213-21.213c-28.772-28.773-66.567-43.16-104.363-43.16z" fill="#00aadf"/><path id="XMLID_413_" d="m254.833 59.384v29.986c18.154 0 36.308 6.91 50.128 20.73l21.213-21.213c-19.668-19.668-45.504-29.503-71.341-29.503z" fill="#00aadf"/><path id="XMLID_326_" d="m254.833 117.183v29.986c8.628 0 17.257 3.284 23.826 9.852l21.213-21.213c-12.417-12.417-28.728-18.625-45.039-18.625z" fill="#00aadf"/></g></svg>