<svg id="Capa_1" enable-background="new 0 0 512 512" height="512" viewBox="0 0 512 512" width="512" xmlns="http://www.w3.org/2000/svg"><g id="XMLID_71_"><path id="XMLID_70_" d="m150.031 433.697-150.031-58.597 90.176-254.189 165.824 64.765z" fill="#fef2f3"/><path id="XMLID_72_" d="m256 185.676-201.551 35.943-54.449 153.481 150.031 58.597z" fill="#ffde46"/><path id="XMLID_465_" d="" fill="#e0e3f9"/><path id="XMLID_473_" d="m164.537 278.049c7.846 0 15.363-6.899 15-15-.364-8.127-6.591-15-15-15-7.846 0-15.363 6.899-15 15 .364 8.127 6.591 15 15 15z" fill="#ffb64c"/><path id="XMLID_464_" d="" fill="#e0e3f9"/><path id="XMLID_471_" d="m99.071 333.719c7.846 0 15.363-6.899 15-15-.364-8.127-6.591-15-15-15-7.846 0-15.363 6.899-15 15 .364 8.127 6.591 15 15 15z" fill="#ffb64c"/><path id="XMLID_263_" d="m361.969 433.697 150.031-58.597-90.176-254.189-165.824 64.765z" fill="#e4ebef"/><path id="XMLID_253_" d="m457.508 221.498-201.508-35.822 105.969 248.021 150.031-58.597z" fill="#ffb64c"/><path id="XMLID_463_" d="" fill="#e0e3f9"/><path id="XMLID_469_" d="m412.463 315.639c7.846 0 15.363-6.899 15-15-.364-8.127-6.591-15-15-15-7.846 0-15.363 6.899-15 15 .364 8.127 6.591 15 15 15z" fill="#ff9468"/><path id="XMLID_467_" d="" fill="#e0e3f9"/><path id="XMLID_2026_" d="m346.642 284.956c7.846 0 15.363-6.899 15-15-.364-8.127-6.591-15-15-15-7.846 0-15.363 6.899-15 15 .365 8.127 6.591 15 15 15z" fill="#ff9468"/><path id="XMLID_2186_" d="m205.238 81.651h30v49.564h-30z" fill="#e4ebef" transform="matrix(.707 -.707 .707 .707 -10.753 186.906)"/><path id="XMLID_2156_" d="m266.98 91.433h49.564v30h-49.564z" fill="#a7d2d7" transform="matrix(.707 -.707 .707 .707 10.196 237.48)"/></g></svg>