<svg id="Capa_1" enable-background="new 0 0 511.69 511.69" height="512" viewBox="0 0 511.69 511.69" width="512" xmlns="http://www.w3.org/2000/svg"><g id="XMLID_83_"><g id="XMLID_48_"><path id="XMLID_2270_" d="m73.868 223.664h61.099v30h-61.099z" fill="#a7d2d7"/></g><g id="XMLID_560_"><path id="XMLID_2269_" d="m376.724 223.664h61.099v30h-61.099z" fill="#7ba0b0"/></g><path id="XMLID_505_" d="m349.974 125.308h-188.258c-23.021 0-41.75 18.729-41.75 41.75v76.606h271.758v-76.606c0-23.022-18.728-41.75-41.75-41.75z" fill="#c7e2e5"/><path id="XMLID_1570_" d="m349.974 125.308h-96.766v118.356h138.516v-76.606c0-23.022-18.728-41.75-41.75-41.75z" fill="#a7d2d7"/><g id="XMLID_502_"><path id="XMLID_2274_" d="m119.966 467.271h30v41.729h-30z" fill="#a7d2d7"/></g><path id="XMLID_526_" d="m391.724 223.664h-88.058l-50.458 10-50.458-10h-82.784v258.607l271.758-.581z" fill="#e4ebef"/><path id="XMLID_1568_" d="m303.666 223.664-50.458 10v248.322l138.516-.296v-258.026z" fill="#c7e2e5"/><g id="XMLID_27_"><g id="XMLID_163_"><path id="XMLID_9_" d="m199.142 365.312c7.846 0 15.363-6.899 15-15-.364-8.127-6.591-15-15-15-7.846 0-15.363 6.899-15 15 .364 8.127 6.591 15 15 15z" fill="#a7d2d7"/></g></g><g id="XMLID_46_"><g id="XMLID_2259_"><path id="XMLID_10_" d="m307.274 365.312c7.846 0 15.363-6.899 15-15-.364-8.127-6.591-15-15-15-7.846 0-15.363 6.899-15 15 .364 8.127 6.59 15 15 15z" fill="#7ba0b0"/></g></g><g id="XMLID_32_"><path id="XMLID_2271_" d="m254.043 305.745h-1.672c-27.361 0-49.621-22.26-49.621-49.621v-32.46h100.915v32.46c.001 27.361-22.26 49.621-49.622 49.621zm-21.293-52.081v2.46c0 10.819 8.802 19.621 19.621 19.621h1.672c10.819 0 19.622-8.802 19.622-19.621v-2.46z" fill="#a7d2d7"/></g><circle id="XMLID_2261_" cx="376.724" cy="462.852" fill="#a7d2d7" r="33.838"/><path id="XMLID_2265_" d="m376.724 511.69c-26.93 0-48.839-21.909-48.839-48.839s21.909-48.839 48.839-48.839 48.838 21.909 48.838 48.839-21.908 48.839-48.838 48.839zm0-67.677c-10.388 0-18.839 8.451-18.839 18.839s8.451 18.839 18.839 18.839 18.838-8.451 18.838-18.839-8.45-18.839-18.838-18.839z" fill="#7ba0b0"/><g id="XMLID_90_"><path id="XMLID_2264_" d="m194.767 89.477h-30c0-12.149 4.723-18.958 7.848-23.463 2.116-3.051 2.498-3.601 2.498-6.364s-.381-3.313-2.497-6.363c-3.126-4.505-7.849-11.313-7.849-23.463s4.724-18.958 7.849-23.463c2.116-3.05 2.497-3.599 2.497-6.36h30c0 12.149-4.723 18.957-7.849 23.462-2.116 3.05-2.497 3.599-2.497 6.361s.381 3.313 2.497 6.363c3.126 4.505 7.849 11.313 7.849 23.463s-4.723 18.959-7.849 23.464c-2.116 3.05-2.497 3.6-2.497 6.363z" fill="#fef2f3"/></g><g id="XMLID_128_"><path id="XMLID_2263_" d="m263.035 89.477h-30c0-12.15 4.724-18.958 7.849-23.464 2.116-3.05 2.498-3.6 2.498-6.363s-.382-3.313-2.498-6.362c-3.125-4.505-7.849-11.313-7.849-23.464s4.724-18.958 7.85-23.463c2.116-3.05 2.497-3.6 2.497-6.36h30c0 12.149-4.724 18.957-7.85 23.462-2.116 3.05-2.497 3.6-2.497 6.361 0 2.763.381 3.313 2.498 6.362 3.125 4.505 7.849 11.313 7.849 23.464s-4.724 18.959-7.849 23.465c-2.117 3.049-2.498 3.599-2.498 6.362z" fill="#fef2f3"/></g><g id="XMLID_129_"><path id="XMLID_2262_" d="m331.302 89.477h-30c0-12.15 4.724-18.958 7.849-23.464 2.116-3.05 2.498-3.6 2.498-6.363s-.382-3.313-2.498-6.362c-3.125-4.505-7.849-11.313-7.849-23.464s4.724-18.958 7.85-23.463c2.116-3.05 2.497-3.6 2.497-6.36h30c0 12.149-4.724 18.957-7.85 23.462-2.116 3.05-2.497 3.6-2.497 6.361 0 2.763.381 3.313 2.498 6.362 3.125 4.505 7.849 11.313 7.849 23.464s-4.724 18.959-7.849 23.465c-2.117 3.049-2.498 3.599-2.498 6.362z" fill="#e4ebef"/></g><path id="XMLID_1575_" d="m253.208 223.664v30h20.458v2.46c0 10.819-8.803 19.621-19.622 19.621h-.835v30h.835c27.361 0 49.622-22.26 49.622-49.621v-32.46z" fill="#7ba0b0"/></g></svg>