<svg id="Capa_1" enable-background="new 0 0 510 510" height="512" viewBox="0 0 510 510" width="512" xmlns="http://www.w3.org/2000/svg"><g id="XMLID_419_"><path id="XMLID_595_" d="m48.375 65.2h420.597v315.096h-420.597z" fill="#75e2f8"/><path id="XMLID_1818_" d="m258.673 65.2h210.298v315.096h-210.298z" fill="#00cef5"/><g fill="#00607f"><path id="XMLID_543_" d="m243.673 66.224h30v34.585h-30z"/><path id="XMLID_499_" d="m243.673 132.439h30v34.145h-30z"/><path id="XMLID_498_" d="m243.673 203.077h30v34.145h-30z"/><path id="XMLID_497_" d="m243.673 273.716h30v34.145h-30z"/><path id="XMLID_432_" d="m243.673 344.354h30v34.145h-30z"/></g><path id="XMLID_429_" d="m391.258 120.89h30v56h-30z" fill="#00465f"/><path id="XMLID_420_" d="m96.667 266.557h30v56h-30z" fill="#00607f"/><path id="XMLID_750_" d="m170.333 310.557c7.846 0 15.363-6.899 15-15-.364-8.127-6.591-15-15-15-7.846 0-15.363 6.899-15 15 .364 8.127 6.591 15 15 15z" fill="#ff5b5b"/><path id="XMLID_1801_" d="m258.673 66.224h15v34.585h-15z" fill="#00465f"/><path id="XMLID_1991_" d="m486 378.053h-30v-295.61h-394.654v295.61h-30v-325.61h454.654z" fill="#a7d2d7"/><path id="XMLID_30_" d="m258.673 132.439h15v34.146h-15z" fill="#00465f"/><path id="XMLID_33_" d="m258.673 203.077h15v34.145h-15z" fill="#00465f"/><path id="XMLID_138_" d="m258.673 273.716h15v34.145h-15z" fill="#00465f"/><path id="XMLID_104_" d="m258.673 344.354h15v34.145h-15z" fill="#00465f"/><path id="XMLID_583_" d="m0 373.053v50.004c0 19.023 15.477 34.5 34.5 34.5h441c19.023 0 34.5-15.477 34.5-34.5v-50.004z" fill="#c7e2e5"/><path id="XMLID_137_" d="m258.673 373.053v84.504h216.827c19.023 0 34.5-15.477 34.5-34.5v-50.004z" fill="#a7d2d7"/><path id="XMLID_782_" d="m258.673 52.443v30h197.327v295.61h30v-325.61z" fill="#7ba0b0"/></g></svg>