<svg id="Capa_1" enable-background="new 0 0 512 512" height="512" viewBox="0 0 512 512" width="512" xmlns="http://www.w3.org/2000/svg"><g id="XMLID_74_"><path id="XMLID_1218_" d="m13.916 35.45h484.168v441.101h-484.168z" fill="#f8e5ca"/><path id="XMLID_2831_" d="m255.448 35.449h242.636v441.101h-242.636z" fill="#f1c992"/><path id="XMLID_644_" d="m85.333 256-85.333 10v-97.743l85.333 10z" fill="#ffde46"/><path id="XMLID_645_" d="m85.333 178.257h-85.333v-87.743l85.333 10z" fill="#ffb64c"/><path id="XMLID_148_" d="m85.333 100.514h-85.333v-77.743h95.333z" fill="#ff9468"/><path id="XMLID_364_" d="m256 100.514h-85.333l-10-77.743h105.333z" fill="#ff9468"/><path id="XMLID_246_" d="m85.333 22.771h85.333v77.743h-85.333z" fill="#ff5b5b"/><path id="XMLID_576_" d="m512 110.514v-87.743h-95.333l10 77.743z" fill="#00cef5"/><path id="XMLID_2123_" d="m426.667 100.514v-77.743h-95.334l10 77.743z" fill="#ff5b5b"/><path id="XMLID_98_" d="m256 22.771h85.333v77.743h-85.333z" fill="#ff193d"/><path id="XMLID_111_" d="m341.333 22.771h85.334" fill="none"/><path id="XMLID_1375_" d="m512 266-85.333-10v-77.743l85.333-10z" fill="#00cef5"/><path id="XMLID_92_" d="m426.667 100.514h85.333v77.743h-85.333z" fill="#00aadf"/><path id="XMLID_637_" d="m426.667 489.229h-95.334l10-77.743h95.334z" fill="#00dd7b"/><path id="XMLID_1416_" d="m512 411.486-85.333 10v-87.743l85.333-10z" fill="#00cef5"/><path id="XMLID_1415_" d="m426.667 256h85.333v77.743h-85.333z" fill="#00aadf"/><path id="XMLID_1417_" d="m426.667 411.486h85.333v77.743h-85.333z" fill="#f1c992"/><path id="XMLID_639_" d="m266 489.229h-105.333l10-77.743h85.333z" fill="#91eb90"/><path id="XMLID_638_" d="m256 411.486h85.333v77.743h-85.333z" fill="#22bf66"/><path id="XMLID_642_" d="m85.333 421.486-85.333-10v-87.743l85.333 10z" fill="#ffde46"/><path id="XMLID_641_" d="m95.333 489.229h-95.333v-77.743h85.333z" fill="#91eb90"/><path id="XMLID_640_" d="m85.333 411.486h85.333v77.743h-85.333z" fill="#22bf66"/><path id="XMLID_643_" d="m0 256h85.333v77.743h-85.333z" fill="#ffb64c"/><path id="XMLID_2506_" d="m379 302.833h-54.089l17.341-14.691-19.393-22.891-62.064 52.582 62.064 52.582 19.393-22.889-17.343-14.693h54.091z" fill="#ff5b5b"/><path id="XMLID_2477_" d="m146.667 159.146h61.333v30h-61.333z" fill="#ff9468"/><path id="XMLID_112_" d="m363.785 89.777 49.647-28.141c5.365-3.041 12.18-1.157 15.221 4.208l39.775 70.17c3.041 5.365 1.157 12.18-4.208 15.221l-101.546 57.559c-1.842 1.044-3.854 1.507-5.826 1.449z" fill="#c7e2e5"/><path id="XMLID_47_" d="m328.121 234.409-68.492-47.719c-4.422-3.081-5.509-9.163-2.428-13.584l68.335-98.084c3.081-4.422 9.163-5.509 13.584-2.428l68.492 47.719c4.422 3.081 5.509 9.163 2.428 13.584l-68.335 98.084c-3.08 4.421-9.162 5.508-13.584 2.428z" fill="#e4ebef"/></g></svg>