<svg id="Capa_1" enable-background="new 0 0 507.987 507.987" height="512" viewBox="0 0 507.987 507.987" width="512" xmlns="http://www.w3.org/2000/svg"><g id="XMLID_298_"><path id="XMLID_767_" d="m226.176 303.982h30v32.926h-30z" fill="#00cef5" transform="matrix(.707 -.707 .707 .707 -155.95 264.393)"/><path id="XMLID_766_" d="m267.129 263.028h30v32.926h-30z" fill="#00cef5" transform="matrix(.707 -.707 .707 .707 -114.997 281.356)"/><path id="XMLID_752_" d="m280.154 257.633h14.739v32.926h-14.739z" fill="#00aadf" transform="matrix(.707 -.707 .707 .707 -109.602 283.591)"/><path id="XMLID_763_" d="m308.082 222.074h30v32.927h-30z" fill="#00aadf" transform="matrix(.707 -.707 .707 .707 -74.043 298.32)"/><path id="XMLID_944_" d="m396.381 9.094-87.916 87.916c-5.874 5.875-9.109 13.686-9.109 21.992 0 8.308 3.235 16.118 9.109 21.993l38.729 38.729c6.044 6.044 9.373 14.08 9.373 22.627 0 8.548-3.328 16.583-9.373 22.627l-121.669 121.67c-6.044 6.044-14.08 9.373-22.628 9.373-8.547 0-16.583-3.329-22.627-9.373l-38.73-38.73c-12.127-12.126-31.857-12.125-43.983 0l-87.917 87.918c-12.123 12.126-12.125 31.856 0 43.984l49.358 49.358c13.572 13.572 32.316 20.323 51.427 18.522 49.746-4.687 97.864-17.649 143.017-38.525 43.997-20.342 84.11-47.681 119.226-81.256s64.226-72.422 86.52-115.463c22.88-44.171 37.986-91.659 44.899-141.146l2.746-19.653c.408-2.921.608-5.85.608-8.77 0-16.905-6.723-33.442-18.797-45.517l-48.278-48.276c-12.127-12.125-31.858-12.125-43.985 0z" fill="#75e2f8"/><path id="XMLID_747_" d="m.99 412.625c-.58 3.443-.58 6.963 0 10.406z" fill="#75e2f8"/><path id="XMLID_760_" d="m308.465 97.01c-5.874 5.875-9.109 13.686-9.109 21.992 0 8.308 3.235 16.118 9.109 21.993l38.729 38.729c6.044 6.044 9.373 14.08 9.373 22.627 0 8.548-3.328 16.583-9.373 22.627l-59.605 59.605 94.262 94.262c31.025-31.441 57.018-67.167 77.335-106.39 22.88-44.171 37.986-91.659 44.899-141.146l2.746-19.653c.408-2.921.608-5.85.608-8.77 0-16.905-6.723-33.442-18.797-45.517l-48.276-48.275c-12.127-12.126-31.858-12.126-43.985 0z" fill="#00cef5"/><path id="XMLID_192_" d="m462.47 31.205 21.21 21.21-132.36 132.37c-1.19-1.8-2.57-3.5-4.13-5.06l-16.62-16.62z" fill="#00aadf"/><path id="XMLID_193_" d="m163.65 330.025 16.62 16.62c1.56 1.56 3.26 2.94 5.06 4.13l-132.37 132.36-21.21-21.21z" fill="#00cef5"/><path id="XMLID_770_" d="m227.728 105.124v30c-50.79 0-92.11 41.32-92.11 92.109h-30c-.001-67.331 54.778-122.109 122.11-122.109z" fill="#ffde46"/><path id="XMLID_769_" d="m217.905 37.065v30c-82.901 0-150.347 67.444-150.347 150.346h-30c.001-99.443 80.904-180.346 180.347-180.346z" fill="#ffde46"/><g fill="#ffb64c"><path id="XMLID_746_" d="m112.915 109.909c27.118-26.49 64.177-42.844 104.991-42.844v-30c-49.084 0-93.643 19.719-126.194 51.641z"/><path id="XMLID_779_" d="m163.897 160.892c16.568-15.947 39.073-25.768 63.831-25.768v-30c-33.029 0-63.031 13.187-85.034 34.565z"/></g></g></svg>