<svg id="Capa_1" enable-background="new 0 0 512.667 512.667" height="512" viewBox="0 0 512.667 512.667" width="512" xmlns="http://www.w3.org/2000/svg"><g id="XMLID_347_"><path id="XMLID_1146_" d="m161.353 379.763h189.961v30h-189.961z" fill="#e29a74"/><path id="XMLID_1269_" d="m256.333 379.763h94.98v30h-94.98z" fill="#c5715a"/><path id="XMLID_1127_" d="m241.333 323h30v189h-30z" fill="#c5715a"/><path id="XMLID_1271_" d="m256.333 323h15v189h-15z" fill="#99503d"/><path id="XMLID_1152_" d="m73.635 395.333h186.001v30h-186.001z" fill="#c5715a" transform="matrix(.344 -.939 .939 .344 -275.974 425.762)"/><path id="XMLID_1148_" d="m331.031 317.333h30v186.001h-30z" fill="#99503d" transform="matrix(.939 -.344 .344 .939 -119.965 143.953)"/><path id="XMLID_1145_" d="m93.333 482.667h82.667v30h-82.667z" fill="#e29a74"/><path id="XMLID_1143_" d="m336.666 482.667h82.667v30h-82.667z" fill="#c5715a"/><path id="XMLID_1154_" d="m241.333 0h30v64.333h-30z" fill="#c5715a"/><path id="XMLID_1272_" d="m256.333 0h15v64.333h-15z" fill="#99503d"/><path id="XMLID_1191_" d="m119.667 49.333v273.667h273.333v-273.667l-79.333.255-57.334 14.745-57.333-14.745z" fill="#fef2f3"/><path id="XMLID_1273_" d="m313.667 49.588-57.334 14.745v258.667h136.667v-273.667z" fill="#e4ebef"/><path id="XMLID_1128_" d="m93.333 308h326v30h-326z" fill="#e29a74"/><path id="XMLID_1155_" d="m199 49.588h114.667v66.491h-114.667z" fill="#e29a74"/><g fill="#c5715a"><path id="XMLID_1270_" d="m256.333 49.588h57.333v66.491h-57.333z"/><path id="XMLID_1286_" d="m256.333 308h163v30h-163z"/></g></g></svg>