<svg id="Capa_1" enable-background="new 0 0 511.258 511.258" height="512" viewBox="0 0 511.258 511.258" width="512" xmlns="http://www.w3.org/2000/svg"><g id="XMLID_664_"><path id="XMLID_931_" d="m0 89.042h511.258v330.541h-511.258z" fill="#91eb90"/><path id="XMLID_1811_" d="m255.629 89.042h255.629v330.541h-255.629z" fill="#00dd7b"/><ellipse id="XMLID_1003_" cx="255.629" cy="254.312" fill="#e4ebef" rx="74.384" ry="74.384" transform="matrix(.383 -.924 .924 .383 -77.15 393.161)"/><path id="XMLID_943_" d="m372.712 80.686v349.24" fill="#e7f9fd"/><path id="XMLID_1592_" d="m357.503 28.812h30.418v452.798h-30.418z" fill="#7ba0b0"/><path id="XMLID_1593_" d="m240.42 28.812h30.418v453.634h-30.418z" fill="#a7d2d7"/><path id="XMLID_1594_" d="m123.338 28.812h30.418v453.216h-30.418z" fill="#a7d2d7"/><path id="XMLID_929_" d="m0 177.566h90.996v153.491h-90.996z" fill="#00dd7b"/><path id="XMLID_957_" d="m420.263 177.566h90.995v153.491h-90.995z" fill="#22bf66"/><path id="XMLID_13_" d="m255.629 179.928v148.768c41.016 0 74.385-33.369 74.385-74.384s-33.369-74.384-74.385-74.384z" fill="#c7e2e5"/><path id="XMLID_16_" d="m255.629 28.812h15.209v453.634h-15.209z" fill="#7ba0b0"/></g></svg>