<svg id="Capa_1" enable-background="new 0 0 509 509" height="512" viewBox="0 0 509 509" width="512" xmlns="http://www.w3.org/2000/svg"><g id="XMLID_65_"><path id="XMLID_1968_" d="m15 15v479h479v-319.333-159.667z" fill="#fef2f3"/><path id="XMLID_2118_" d="m254.5 15v479h239.5v-319.333-159.667z" fill="#e4ebef"/><path id="XMLID_1997_" d="m509 509h-509v-509h509zm-479-30h449v-449h-449z" fill="#c7e2e5"/><path id="XMLID_2175_" d="m254.5 0v30h224.5v449h-224.5v30h254.5v-509z" fill="#a7d2d7"/><g fill="#00607f"><path id="XMLID_1993_" d="m94.833 461c-25.824 0-46.833-21.009-46.833-46.833s21.009-46.834 46.833-46.834 46.833 21.01 46.833 46.834-21.009 46.833-46.833 46.833zm0-63.667c-9.282 0-16.833 7.552-16.833 16.834s7.551 16.833 16.833 16.833 16.833-7.551 16.833-16.833-7.551-16.834-16.833-16.834z"/><path id="XMLID_1989_" d="m254.5 141.667c-25.824 0-46.833-21.01-46.833-46.834s21.009-46.833 46.833-46.833 46.833 21.009 46.833 46.833-21.009 46.834-46.833 46.834zm0-63.667c-9.282 0-16.833 7.551-16.833 16.833s7.551 16.834 16.833 16.834 16.833-7.552 16.833-16.834-7.551-16.833-16.833-16.833z"/><path id="XMLID_1985_" d="m254.5 461c-25.824 0-46.833-21.009-46.833-46.833s21.009-46.834 46.833-46.834 46.833 21.01 46.833 46.834-21.009 46.833-46.833 46.833zm0-63.667c-9.282 0-16.833 7.552-16.833 16.834s7.551 16.833 16.833 16.833 16.833-7.551 16.833-16.833-7.551-16.834-16.833-16.834z"/><path id="XMLID_1981_" d="m94.833 298.542c-25.824 0-46.833-21.01-46.833-46.834s21.009-46.833 46.833-46.833 46.833 21.009 46.833 46.833-21.009 46.834-46.833 46.834zm0-63.667c-9.282 0-16.833 7.551-16.833 16.833s7.551 16.834 16.833 16.834 16.833-7.552 16.833-16.834-7.551-16.833-16.833-16.833z"/></g><path id="XMLID_1302_" d="m300.481 226.939-21.212-21.212-24.769 24.768-24.769-24.768-21.212 21.212 24.768 24.769-24.768 24.769 21.212 21.212 24.769-24.768 24.769 24.768 21.212-21.212-24.768-24.769z" fill="#ff5b5b"/><path id="XMLID_2051_" d="m300.481 226.939-21.212-21.212-24.769 24.768-24.769-24.768-21.212 21.212 24.768 24.769-24.768 24.769 21.212 21.212 24.769-24.768 24.769 24.768 21.212-21.212-24.768-24.769z" fill="#ff5b5b"/><path id="XMLID_1226_" d="m458.752 68.669-21.212-21.213-24.769 24.769-24.769-24.769-21.212 21.213 24.768 24.769-24.768 24.768 21.212 21.213 24.769-24.769 24.769 24.769 21.212-21.213-24.768-24.768z" fill="#ff193d"/><path id="XMLID_1262_" d="m458.752 229.731-21.212-21.212-24.769 24.768-24.769-24.768-21.212 21.212 24.768 24.769-24.768 24.769 21.212 21.212 24.769-24.768 24.769 24.768 21.212-21.212-24.768-24.769z" fill="#ff193d"/><path id="XMLID_1972_" d="m159.667 0h30v509h-30z" fill="#a7d2d7"/><path id="XMLID_2066_" d="m509 189.666v-30h-159.667v-159.666h-30v159.666h-319.333v30h319.333v129.667h-319.333v30h319.333v159.667h30v-159.667h159.667v-30h-159.667v-129.667z" fill="#a7d2d7"/><path id="XMLID_2120_" d="m509 189.666v-30h-159.667v-159.666h-30v159.666h-64.833v30h64.833v129.667h-64.833v30h64.833v159.667h30v-159.667h159.667v-30h-159.667v-129.667z" fill="#7ba0b0"/><path id="XMLID_28_" d="m254.5 367.333v30c9.282 0 16.833 7.552 16.833 16.834s-7.551 16.833-16.833 16.833v30c25.824 0 46.833-21.009 46.833-46.833s-21.009-46.834-46.833-46.834z" fill="#00465f"/><path id="XMLID_2231_" d="m254.5 48v30c9.282 0 16.833 7.551 16.833 16.833s-7.551 16.834-16.833 16.834v30c25.824 0 46.833-21.01 46.833-46.834s-21.009-46.833-46.833-46.833z" fill="#00465f"/><path id="XMLID_241_" d="m300.481 226.939-21.212-21.212-24.769 24.768v42.426l24.769 24.768 21.212-21.212-24.768-24.769z" fill="#ff193d"/></g></svg>