<svg id="Capa_1" enable-background="new 0 0 510 510" height="512" viewBox="0 0 510 510" width="512" xmlns="http://www.w3.org/2000/svg"><g id="XMLID_1458_"><path id="XMLID_525_" d="m0 354.5v58h99v-88z" fill="#00607f"/><path id="XMLID_485_" d="m411 324.5v88h99v-58z" fill="#00465f"/><path id="XMLID_122_" d="m75 97.5h30v49h-30z" fill="#00607f"/><path id="XMLID_544_" d="m463.5 131.5h-417c-25.64 0-46.5 20.859-46.5 46.5v176.5h510v-176.5c0-25.641-20.86-46.5-46.5-46.5z" fill="#a7d2d7"/><path id="XMLID_1126_" d="m463.5 131.5h-193.881v223h240.381v-176.5c0-25.641-20.86-46.5-46.5-46.5z" fill="#7ba0b0"/><circle id="XMLID_520_" cx="381.119" cy="243" fill="#00607f" r="96.5"/><path id="XMLID_521_" d="m381.119 354.5c-61.481 0-111.5-50.019-111.5-111.5s50.019-111.5 111.5-111.5 111.5 50.019 111.5 111.5-50.018 111.5-111.5 111.5zm0-193c-44.939 0-81.5 36.561-81.5 81.5s36.561 81.5 81.5 81.5 81.5-36.561 81.5-81.5-36.56-81.5-81.5-81.5z" fill="#00465f"/><circle id="XMLID_501_" cx="381.119" cy="243" fill="#c7e2e5" r="37.5"/><path id="XMLID_517_" d="m381.119 295.5c-28.949 0-52.5-23.552-52.5-52.5s23.551-52.5 52.5-52.5 52.5 23.552 52.5 52.5-23.551 52.5-52.5 52.5zm0-75c-12.407 0-22.5 10.094-22.5 22.5s10.093 22.5 22.5 22.5 22.5-10.094 22.5-22.5-10.093-22.5-22.5-22.5z" fill="#00465f"/><g id="XMLID_1399_"><path id="XMLID_516_" d="m86.667 196.833h77.667v30h-77.667z" fill="#c7e2e5"/></g><g id="XMLID_1400_"><path id="XMLID_504_" d="m86.667 259.167h77.667v30h-77.667z" fill="#c7e2e5"/></g></g></svg>