<svg id="Capa_1" enable-background="new 0 0 514.018 514.018" height="512" viewBox="0 0 514.018 514.018" width="512" xmlns="http://www.w3.org/2000/svg"><g id="XMLID_721_"><g id="XMLID_607_"><path id="XMLID_1896_" d="m-136.221 242.008h403.589v30.001h-403.589z" fill="#e29a74" transform="matrix(.124 -.992 .992 .124 -197.579 290.236)"/></g><g id="XMLID_149_"><path id="XMLID_1895_" d="m433.017 55.214h30.001v403.589h-30.001z" fill="#c5715a" transform="matrix(.992 -.124 .124 .992 -28.389 57.484)"/></g><g id="XMLID_765_"><path id="XMLID_1891_" d="m332.277 304.381h-152.554l-10-25.785v-226.827h172.555v226.827zm-132.554-20h112.555v-212.612h-112.555z" fill="#e29a74"/></g><path id="XMLID_2215_" d="m255.991 51.769v20h56.286v212.612h-56.286v20h76.286l10-25.785v-226.827z" fill="#c5715a"/><g id="XMLID_492_"><path id="XMLID_1897_" d="m0 41.769h512v30h-512z" fill="#c5715a"/></g><path id="XMLID_1913_" d="m169.723 278.596h172.555v68.764h-172.555z" fill="#00cef5"/><g id="XMLID_608_"><path id="XMLID_1886_" d="m0 442.249h84v30h-84z" fill="#c5715a"/></g><g id="XMLID_609_"><path id="XMLID_1885_" d="m430.018 442.249h84v30h-84z" fill="#99503d"/></g><path id="XMLID_2244_" d="m255.991 41.769h256.009v30h-256.009z" fill="#99503d"/><path id="XMLID_183_" d="m255.991 278.596h86.286v68.764h-86.286z" fill="#00aadf"/></g></svg>