<svg id="Capa_1" enable-background="new 0 0 513 513" height="512" viewBox="0 0 513 513" width="512" xmlns="http://www.w3.org/2000/svg"><g id="XMLID_75_"><path id="XMLID_524_" d="m234.805 486.824h-84.348v-30h84.348c12.256 0 23.331-7.723 27.561-19.216l28.154 10.359c-8.551 23.242-30.942 38.857-55.715 38.857z" fill="#f8e5ca"/><path id="XMLID_481_" d="m124.58 430.648c-17.412 0-32.324 10.87-38.335 26.176h-49.906v30h49.907c6.01 15.306 20.922 26.176 38.334 26.176 22.704 0 41.176-18.472 41.176-41.176s-18.472-41.176-41.176-41.176zm0 52.352c-6.162 0-11.176-5.014-11.176-11.176s5.014-11.176 11.176-11.176 11.176 5.014 11.176 11.176-5.014 11.176-11.176 11.176z" fill="#a7d2d7"/><path id="XMLID_528_" d="m101.047 372.12h68.526v30h-68.526z" fill="#f8e5ca"/><path id="XMLID_500_" d="m309.245 0h30v48.228h-30z" fill="#99503d"/><path id="XMLID_489_" d="m231.922 0h30v48.483h-30z" fill="#c5715a"/><path id="XMLID_855_" d="m437.014 92.198c-40.449-40.448-94.229-62.725-151.432-62.725s-110.982 22.277-151.431 62.725c-40.448 40.449-62.725 94.229-62.725 151.432 0 57.204 22.276 110.983 62.725 151.433 40.449 40.448 94.229 62.725 151.432 62.725s110.983-22.276 151.432-62.725 62.726-94.229 62.726-151.433c-.001-57.203-22.277-110.983-62.727-151.432z" fill="#e29a74"/><path id="XMLID_875_" d="m437.014 92.198c-40.449-40.448-94.229-62.725-151.432-62.725v428.313c57.203 0 110.983-22.276 151.432-62.725s62.726-94.229 62.726-151.433c0-57.201-22.276-110.981-62.726-151.43z" fill="#c5715a"/><ellipse id="XMLID_2307_" cx="285.583" cy="243.63" fill="#fef2f3" rx="160.604" ry="160.604" transform="matrix(.973 -.23 .23 .973 -48.335 72.131)"/><path id="XMLID_879_" d="m285.583 83.026v321.208c88.558 0 160.604-72.047 160.604-160.604s-72.047-160.604-160.604-160.604z" fill="#e4ebef"/><path id="XMLID_2298_" d="m340.066 156.662h30v35.482h-30z" fill="#f1c992"/><path id="XMLID_2297_" d="m340.066 226.731h30v35.483h-30z" fill="#f1c992"/><path id="XMLID_2296_" d="m340.066 295.116h30v35.482h-30z" fill="#f1c992"/><g fill="#f8e5ca"><path id="XMLID_2295_" d="m270.583 295.116h30v35.482h-30z"/><path id="XMLID_2294_" d="m270.583 156.662h30v35.482h-30z"/><path id="XMLID_542_" d="m201.099 156.662h30v35.482h-30z"/><path id="XMLID_541_" d="m201.099 226.731h30v35.483h-30z"/><path id="XMLID_845_" d="m231.1 280.12v50.48h-30v-20.48h-126.84c-17.09 0-31 13.9-31 31 0 17.09 13.91 31 31 31h39.95c6.04 8.04 12.7 15.7 19.94 22.94 2.42 2.42 4.89 4.77 7.4 7.06h-67.29c-33.63 0-61-27.37-61-61 0-33.64 27.37-61 61-61z"/><path id="XMLID_796_" d="m320.346 230.08-21.212-21.213-13.551 13.55-13.55-13.55-21.213 21.213 13.55 13.55-13.55 13.551 21.213 21.213 13.55-13.551 13.551 13.551 21.212-21.213-13.55-13.551z"/></g><path id="XMLID_876_" d="m285.583 156.662h15v35.482h-15z" fill="#f1c992"/><path id="XMLID_888_" d="m285.583 295.116h15v35.482h-15z" fill="#f1c992"/><path id="XMLID_892_" d="m320.346 230.08-21.212-21.213-13.551 13.55v42.427-.001l13.551 13.551 21.212-21.213-13.55-13.551z" fill="#f1c992"/></g></svg>