<svg id="Capa_1" enable-background="new 0 0 510.073 510.073" height="512" viewBox="0 0 510.073 510.073" width="512" xmlns="http://www.w3.org/2000/svg"><g id="XMLID_3_"><path id="XMLID_512_" d="m438.341 173.487h71.732v54.084h-71.732z" fill="#00aadf"/><path id="XMLID_511_" d="m379.494 322.132h-150.898l10-30h140.897c7.119 0 12.911-5.792 12.911-12.911s-5.792-12.911-12.911-12.911v-30c23.661 0 42.911 19.25 42.911 42.911s-19.249 42.911-42.91 42.911z" fill="#ff5b5b"/><path id="XMLID_510_" d="m285.768 387.043h-47.172l-10-30h57.172z" fill="#ff5b5b"/><path id="XMLID_495_" d="m270.768 335.698h30v72.688h-30z" fill="#ff193d"/><path id="XMLID_493_" d="m238.596 387.043h-76.274v-30h46.274v-34.911h-23.09v-30h53.09z" fill="#00cef5"/><path id="XMLID_338_" d="m208.97 292.132h29.626v94.911h-29.626z" fill="#00aadf"/><path id="XMLID_1136_" d="m452.513 138.517-30 11.232v-27.672c0-5.908-4.807-10.715-10.715-10.715h-32.908v-30h32.908c22.45 0 40.715 18.265 40.715 40.715z" fill="#ff5b5b"/><path id="XMLID_200_" d="m328.909 27.977h-239.877c-36.288 0-65.81 29.522-65.81 65.81v5.153c0 36.287 29.522 65.81 65.81 65.81h239.877c36.288 0 65.81-29.522 65.81-65.81v-5.153c-.001-36.288-29.523-65.81-65.81-65.81z" fill="#91eb90"/><path id="XMLID_156_" d="m328.909 27.977h-119.939v136.772h119.938c36.288 0 65.81-29.522 65.81-65.81v-5.153c0-36.287-29.522-65.809-65.809-65.809z" fill="#00dd7b"/><path id="XMLID_79_" d="m122.171 27.977h30v136.772h-30z" fill="#00dd7b"/><path id="XMLID_5_" d="m265.77 27.977h30v136.772h-30z" fill="#22bf66"/><path id="XMLID_1138_" d="m14.754 138.517v128.486h52.5l-67.254 215.093h149.889l61.206-183.898c6.735-18.665 24.566-31.194 44.42-31.194l186.997-10v-108.487l-233.542-10z" fill="#75e2f8"/><path id="XMLID_1190_" d="m208.97 138.517v166.065l2.125-6.385c6.735-18.665 24.566-31.194 44.42-31.194h196.997v-128.486z" fill="#00cef5"/><path id="XMLID_1120_" d="m363.338 138.517h30v128.486h-30z" fill="#00aadf"/><path id="XMLID_1119_" d="m229.833 215.53c7.846 0 15.363-6.899 15-15-.364-8.127-6.591-15-15-15-7.846 0-15.363 6.899-15 15 .364 8.127 6.591 15 15 15z" fill="#00aadf"/><path id="XMLID_4_" d="m98.445 215.53c7.846 0 15.363-6.899 15-15-.364-8.127-6.591-15-15-15-7.846 0-15.363 6.899-15 15 .364 8.127 6.591 15 15 15z" fill="#00cef5"/><path id="XMLID_1118_" d="m301.796 215.53c7.846 0 15.363-6.899 15-15-.364-8.127-6.591-15-15-15-7.846 0-15.363 6.899-15 15 .364 8.127 6.591 15 15 15z" fill="#00aadf"/><path id="XMLID_1133_" d="m175.889 403.976-9.984 30h-150.859l9.38-30z" fill="#00cef5"/></g></svg>