<svg id="Capa_1" enable-background="new 0 0 508 508" height="512" viewBox="0 0 508 508" width="512" xmlns="http://www.w3.org/2000/svg"><g id="XMLID_235_"><path id="XMLID_399_" d="m408.796 65.167h-155.592l-34.973 88h225.539z" fill="#a7d2d7"/><path id="XMLID_1245_" d="m331 153.167h112.77l-34.974-88h-77.796z" fill="#7ba0b0"/><path id="XMLID_147_" d="m472.552 123.167h-318.552l30 336.666h288.552c19.546 0 35.448-15.902 35.448-35.448v-265.77c0-19.546-15.902-35.448-35.448-35.448z" fill="#00465f"/><path id="XMLID_1277_" d="m472.552 123.167h-141.552v336.666h141.552c19.546 0 35.448-15.902 35.448-35.448v-265.77c0-19.546-15.902-35.448-35.448-35.448z" fill="#002c3c"/><path id="XMLID_398_" d="m47.167 48.167h89.667v84.076h-89.667z" fill="#00465f"/><path id="XMLID_396_" d="m159.097 102.243h-134.194c-13.732 0-24.903 11.172-24.903 24.903v307.784c0 13.731 11.171 24.902 24.903 24.902h159.097v-332.686c0-13.731-11.171-24.903-24.903-24.903z" fill="#a7d2d7"/><path id="XMLID_264_" d="m0 167.833h107v100.667h-107z" fill="#7ba0b0"/><circle id="XMLID_1820_" cx="331" cy="291.5" fill="#a7d2d7" r="96"/><path id="XMLID_1258_" d="m331 195.5v192c53.019 0 96-42.981 96-96s-42.98-96-96-96z" fill="#7ba0b0"/><path id="XMLID_406_" d="m331 402.5c-61.206 0-111-49.794-111-111s49.794-111 111-111 111 49.794 111 111-49.794 111-111 111zm0-192c-44.663 0-81 36.337-81 81s36.337 81 81 81 81-36.337 81-81-36.337-81-81-81z" fill="#00607f"/><path id="XMLID_1250_" d="m331 180.5v30c44.663 0 81 36.337 81 81s-36.337 81-81 81v30c61.206 0 111-49.794 111-111s-49.794-111-111-111z" fill="#00465f"/><path id="XMLID_2_" d="m219.667 203.833c7.846 0 15.363-6.899 15-15-.364-8.127-6.591-15-15-15-7.846 0-15.363 6.899-15 15 .364 8.127 6.59 15 15 15z" fill="#ff9468"/><circle id="XMLID_1819_" cx="331" cy="291.5" fill="#c7e2e5" r="42"/><path id="XMLID_1239_" d="m331 249.5v84c23.196 0 42-18.804 42-42s-18.804-42-42-42z" fill="#a7d2d7"/></g></svg>