<svg id="Capa_1" enable-background="new 0 0 512 512" height="512" viewBox="0 0 512 512" width="512" xmlns="http://www.w3.org/2000/svg"><g id="XMLID_80_"><path id="XMLID_444_" d="m241.129 0h30v125.536h-30z" fill="#e4ebef"/><path id="XMLID_872_" d="m256.129 0h15v125.536h-15z" fill="#a7d2d7"/><path id="XMLID_443_" d="m418.701 144.229h-30v-75.722h-265.144v75.722h-30v-105.722h325.144z" fill="#a7d2d7"/><path id="XMLID_455_" d="m287.331 114.036h-62.405c-25.165 0-45.638 20.473-45.638 45.638v161.171h153.681v-161.171c0-25.165-20.473-45.638-45.638-45.638z" fill="#ff9468"/><path id="XMLID_909_" d="m287.331 114.036h-31.202v206.809h76.84v-161.171c0-25.165-20.473-45.638-45.638-45.638z" fill="#ff5b5b"/><path id="XMLID_270_" d="m94.799 228.092h30v37.408h-30z" fill="#a7d2d7"/><path id="XMLID_269_" d="m388.701 228.092h30v37.408h-30z" fill="#7ba0b0"/><path id="XMLID_272_" d="m70.157 134.729h79.283v102.862h-79.283z" fill="#ff9468"/><path id="XMLID_53_" d="m200.483 354.025h111.29v143.001h-111.29z" fill="#e4ebef"/><path id="XMLID_871_" d="m256.129 354.025h55.645v143.001h-55.645z" fill="#a7d2d7"/><path id="XMLID_445_" d="m322.864 297.845h-133.471c-16.92 0-30.685 13.765-30.685 30.685v51.996h194.841v-51.996c0-16.921-13.765-30.685-30.685-30.685z" fill="#ff5b5b"/><path id="XMLID_910_" d="m322.864 297.845h-66.735v82.681h97.42v-51.996c0-16.921-13.765-30.685-30.685-30.685z" fill="#ff193d"/><path id="XMLID_271_" d="m143.197 482h225.862v30h-225.862z" fill="#a7d2d7"/><path id="XMLID_121_" d="m256.129 482h112.931v30h-112.931z" fill="#7ba0b0"/><path id="XMLID_882_" d="m256.129 38.507v30h132.572v75.722h30v-105.722z" fill="#7ba0b0"/><path id="XMLID_52_" d="m362.56 134.729h79.283v102.862h-79.283z" fill="#ff5b5b"/></g></svg>