<svg id="Capa_1" enable-background="new 0 0 512 512" height="512" viewBox="0 0 512 512" width="512" xmlns="http://www.w3.org/2000/svg"><g id="XMLID_177_"><path id="XMLID_491_" d="m118.821 223.128h274.357v65.744h-274.357z" fill="#a7d2d7" transform="matrix(-.707 .707 -.707 -.707 618.039 256)"/><path id="XMLID_284_" d="m130.443 251.186h274.357v32.872h-274.357z" fill="#7ba0b0" transform="matrix(.707 -.707 .707 .707 -110.853 267.622)"/><path id="XMLID_603_" d="m413.743 21.443h87.883v65.744h-87.883z" fill="#a7d2d7" transform="matrix(.707 -.707 .707 .707 95.646 339.541)"/><path id="XMLID_283_" d="m425.366 49.501h87.883v32.872h-87.883z" fill="#7ba0b0" transform="matrix(.707 -.707 .707 .707 90.832 351.163)"/><path id="XMLID_449_" d="m363.705 13.754h85.375v183.563h-85.375z" fill="#00607f" transform="matrix(-.707 .707 -.707 -.707 768.38 -107.203)"/><path id="XMLID_282_" d="m396.173 92.138h85.375v91.731h-85.375z" fill="#00465f" transform="matrix(.707 -.707 .707 .707 30.957 350.741)"/><path id="XMLID_448_" d="m325.139 27.503h72.692v247.282h-72.692z" fill="#00465f" transform="matrix(-.707 .707 -.707 -.707 723.967 2.41)"/><path id="XMLID_292_" d="m368.695 132.658h72.692v124.085h-72.692z" fill="#002c3c" transform="matrix(.707 -.707 .707 .707 -19.04 343.433)"/><path id="XMLID_694_" d="m10.374 424.812h87.883v65.744h-87.883z" fill="#a7d2d7" transform="matrix(.707 -.707 .707 .707 -307.723 172.46)"/><path id="XMLID_178_" d="m21.996 452.871h87.883v32.872h-87.883z" fill="#7ba0b0" transform="matrix(.707 -.707 .707 .707 -312.537 184.082)"/><path id="XMLID_695_" d="m62.358 313.43h88.716v183.563h-88.716z" fill="#00607f" transform="matrix(.707 -.707 .707 .707 -255.271 194.144)"/><path id="XMLID_279_" d="m94.826 391.814h88.716v91.731h-88.716z" fill="#00465f" transform="matrix(.707 -.707 .707 .707 -268.72 226.611)"/><path id="XMLID_696_" d="m114.798 237.843h72.692v247.282h-72.692z" fill="#00465f" transform="matrix(.707 -.707 .707 .707 -211.339 212.751)"/><path id="XMLID_596_" d="m158.354 342.999h72.692v124.085h-72.692z" fill="#002c3c" transform="matrix(.707 -.707 .707 .707 -229.381 256.308)"/></g></svg>