<svg id="Capa_1" enable-background="new 0 0 511.148 511.148" height="512" viewBox="0 0 511.148 511.148" width="512" xmlns="http://www.w3.org/2000/svg"><g id="XMLID_1752_"><path id="XMLID_1132_" d="m411.406 401.403v-349.837c0-27.658-22.502-50.16-50.16-50.16h-211.344c-27.658 0-50.16 22.501-50.16 50.16v349.837l155.832 43.003z" fill="#75e2f8"/><path id="XMLID_1131_" d="m361.246 1.406h-105.672v443l155.832-43.003v-349.837c0-27.659-22.502-50.16-50.16-50.16z" fill="#00cef5"/><path id="XMLID_1130_" d="m99.744 401.403v58.18c0 27.658 22.502 50.16 50.16 50.16h211.34c27.658 0 50.16-22.502 50.16-50.16v-58.18z" fill="#fef2f3"/><path id="XMLID_1129_" d="m255.574 401.403v108.34h105.67c27.658 0 50.16-22.502 50.16-50.16v-58.18z" fill="#e4ebef"/><path id="XMLID_1125_" d="m255.574 459.406c7.846 0 15.363-6.899 15-15-.364-8.127-6.591-15-15-15-7.846 0-15.363 6.899-15 15 .364 8.127 6.591 15 15 15z" fill="#a7d2d7"/><path id="XMLID_1124_" d="m255.574 429.406v30c7.846 0 15.363-6.899 15-15-.364-8.127-6.591-15-15-15z" fill="#7ba0b0"/><path id="XMLID_1123_" d="m327.022 49.391v132.811h101.743l24.308 22.536 29.101-22.536h28.974v-132.811z" fill="#c7e2e5"/><path id="XMLID_1122_" d="m327.022 212.706v132.812h101.743l24.308 22.536 29.101-22.536h28.974v-132.812z" fill="#c7e2e5"/><path id="XMLID_1005_" d="m0 112.315v197.617h33.584l34.674 26.853 28.964-26.853h124.09v-197.617z" fill="#e4ebef"/></g></svg>