<svg id="Capa_1" enable-background="new 0 0 515.525 515.525" height="512" viewBox="0 0 515.525 515.525" width="512" xmlns="http://www.w3.org/2000/svg"><g id="XMLID_157_"><path id="XMLID_170_" d="m276.218 136.732h-93.919c-28.515 0-28.893-47.234-28.893-47.672l.146-34.552-25.342 23.486c-26.753 24.794-36.117 45.223-38.756 59.518-20.633 4.083-36.321 23.704-36.321 47.22 0 9.984 2.797 19.557 8.089 27.682l4.438 6.814 242.338-.004 4.438-6.816c5.289-8.124 8.085-17.694 8.085-27.676-.001-26.468-19.875-48-44.303-48z" fill="#91eb90"/><path id="XMLID_985_" d="m276.218 136.732h-87.249v82.494l119.028-.002 4.438-6.816c5.289-8.124 8.085-17.694 8.085-27.676 0-26.468-19.874-48-44.302-48z" fill="#00dd7b"/><path id="XMLID_868_" d="m25.257 189.22h327.424v91.163h-327.424z" fill="#ffb64c"/><path id="XMLID_935_" d="m188.969 189.22h163.712v91.163h-163.712z" fill="#ff9468"/><path id="XMLID_877_" d="m0 250.383h377.938v254.496h-377.938z" fill="#f8e5ca"/><path id="XMLID_907_" d="m188.969 250.383h188.969v254.496h-188.969z" fill="#f1c992"/><path id="XMLID_874_" d="m215.03 325.138c26.683 15.984 35.357 50.574 19.372 77.257s-50.574 35.357-77.257 19.372c-26.683-15.984-50.794-96.08-50.794-96.08s81.996-16.533 108.679-.549z" fill="#91eb90"/><path id="XMLID_175_" d="m215.03 325.138c-6.244-3.741-15.518-5.7-26.062-6.508v111.072c18.101-.944 35.419-10.589 45.434-27.307 15.985-26.683 7.312-61.272-19.372-77.257z" fill="#00dd7b"/><path id="XMLID_852_" d="m212.975 344.209h29.999v108.906h-29.999z" fill="#00dd7b" transform="matrix(.514 -.858 .858 .514 -231.174 389.363)"/><path id="XMLID_898_" d="m188.97 357.811-.001.002v34.968l78.011 46.732 15.416-25.736z" fill="#22bf66"/><path id="XMLID_873_" d="m460.129 10.647c-30.595 0-55.397 24.802-55.397 55.397v29.267c0 22.606 3.387 45.084 10.047 66.687 6.661 21.602 10.047 44.081 10.047 66.687v276.191h70.604v-276.192c0-22.606 3.387-45.084 10.047-66.687 6.661-21.602 10.047-44.081 10.047-66.687v-29.266c.001-30.595-24.801-55.397-55.395-55.397z" fill="#f8e5ca"/><path id="XMLID_176_" d="m460.129 10.647v494.228h35.302v-276.191c0-22.606 3.387-45.084 10.048-66.687 6.661-21.602 10.047-44.081 10.047-66.687v-29.266c-.001-30.595-24.803-55.397-55.397-55.397z" fill="#f1c992"/></g></svg>