<svg id="Capa_1" enable-background="new 0 0 512 512" height="512" viewBox="0 0 512 512" width="512" xmlns="http://www.w3.org/2000/svg"><g id="XMLID_299_"><path id="XMLID_168_" d="m0 157.735h512v339.569h-512z" fill="#ff5b5b"/><path id="XMLID_349_" d="m255.896 157.735h256.104v339.569h-256.104z" fill="#ff193d"/><path id="XMLID_169_" d="m351.544 15.412-48.72 21.949-46.824-22.664v121.736l95.544-20.167z" fill="#ff9468"/><path id="XMLID_1105_" d="m288.805 92.893-32.914 18.831-33.856-18.831h-174.348v356.315h416.626v-356.315z" fill="#fef2f3"/><path id="XMLID_1808_" d="m288.805 92.893-32.914 18.831v337.484h208.422v-356.315z" fill="#e4ebef"/><g id="XMLID_202_"><path id="XMLID_1088_" d="m109.87 188.322h89.409v30h-89.409z" fill="#a7d2d7"/></g><g id="XMLID_203_"><path id="XMLID_1086_" d="m109.87 258.572h89.409v30h-89.409z" fill="#a7d2d7"/></g><g id="XMLID_204_"><path id="XMLID_1085_" d="m109.87 328.821h89.409v30h-89.409z" fill="#a7d2d7"/></g><g id="XMLID_207_"><path id="XMLID_1048_" d="m313.057 188.322h89.409v30h-89.409z" fill="#7ba0b0"/></g><g id="XMLID_206_"><path id="XMLID_171_" d="m313.057 258.572h89.409v30h-89.409z" fill="#7ba0b0"/></g><g id="XMLID_205_"><path id="XMLID_172_" d="m313.057 328.821h89.409v30h-89.409z" fill="#7ba0b0"/></g></g></svg>