<svg id="Capa_1" enable-background="new 0 0 506.514 506.514" height="512" viewBox="0 0 506.514 506.514" width="512" xmlns="http://www.w3.org/2000/svg"><g id="XMLID_35_"><path id="XMLID_267_" d="m0 163.146v206.331c0 41.265 33.572 74.837 74.837 74.837 28.349 0 54.728-16.449 67.202-41.906l66.742-136.199z" fill="#00607f"/><path id="XMLID_218_" d="m100.946 62.2 95.59 175.151h103.027l106.005-175.151z" fill="#00607f"/><path id="XMLID_304_" d="m253.257 62.2v175.151h46.306l106.005-175.151z" fill="#00465f"/><path id="XMLID_216_" d="m297.189 265.102 67.284 137.307c12.476 25.457 38.854 41.905 67.203 41.905 41.266 0 74.837-33.572 74.837-74.837v-206.331z" fill="#00465f"/><path id="XMLID_296_" d="m405.568 62.2c-55.661 0-100.945 45.284-100.945 100.945 0 14.74 3.109 28.954 9.243 42.248l.784 1.7 28.985 35.793 1.494 1.118c17.558 13.141 38.456 20.086 60.438 20.086 55.661 0 100.945-45.284 100.945-100.946s-45.283-100.944-100.944-100.944z" fill="#7ba0b0"/><path id="XMLID_40_" d="" fill="#fdf6c8"/><path id="XMLID_43_" d="m402.516 147.084c7.846 0 15.363-6.899 15-15-.364-8.127-6.591-15-15-15-7.846 0-15.363 6.899-15 15 .364 8.127 6.591 15 15 15z" fill="#002c3c"/><path id="XMLID_44_" d="" fill="#fdf6c8"/><path id="XMLID_118_" d="m402.516 216.758c7.846 0 15.363-6.899 15-15-.364-8.127-6.591-15-15-15-7.846 0-15.363 6.899-15 15 .364 8.127 6.591 15 15 15z" fill="#002c3c"/><path id="XMLID_150_" d="" fill="#fdf6c8"/><path id="XMLID_151_" d="m366.649 181.749c7.846 0 15.363-6.899 15-15-.364-8.127-6.591-15-15-15-7.846 0-15.363 6.899-15 15 .364 8.127 6.591 15 15 15z" fill="#002c3c"/><path id="XMLID_153_" d="" fill="#fdf6c8"/><path id="XMLID_154_" d="m438.383 181.749c7.846 0 15.363-6.899 15-15-.364-8.127-6.591-15-15-15-7.846 0-15.363 6.899-15 15 .364 8.127 6.59 15 15 15z" fill="#002c3c"/><path id="XMLID_682_" d="m229.789 118.8h46.937v30h-46.937z" fill="#00465f"/><path id="XMLID_700_" d="m253.257 118.8h23.469v30h-23.469z" fill="#002c3c"/><path id="XMLID_388_" d="m100.946 62.2c-55.662 0-100.946 45.284-100.946 100.946s45.284 100.946 100.946 100.946c21.923 0 42.776-6.911 60.305-19.987l1.501-1.12 29.108-35.883.787-1.706c6.134-13.295 9.244-27.51 9.244-42.25 0-55.662-45.284-100.946-100.945-100.946z" fill="#a7d2d7"/><circle id="XMLID_300_" cx="189.35" cy="234.707" fill="#00465f" r="52.068"/><path id="XMLID_222_" d="m317.164 182.639c-28.71 0-52.067 23.357-52.067 52.068s23.357 52.068 52.067 52.068c28.711 0 52.068-23.357 52.068-52.068s-23.357-52.068-52.068-52.068z" fill="#002c3c"/><path id="XMLID_243_" d="m100.946 124.864v76.564" fill="#fdf6c8"/><path id="XMLID_155_" d="m139.228 163.146h-76.564" fill="#fdf6c8"/><path id="XMLID_582_" d="m139.228 148.146h-23.282v-23.283h-30v23.283h-23.282v30h23.282v23.282h30v-23.282h23.282z" fill="#00465f"/></g></svg>